<svg id="svg" version="1.1" xmlns="http://www.w3.org/2000/svg" xmlns:xlink="http://www.w3.org/1999/xlink" width="400" height="130.80645161290323" viewBox="0, 0, 400,130.80645161290323"><g id="svgg"><path id="path0" d="M196.551 56.659 C 194.414 57.962,195.355 61.167,197.874 61.167 C 199.712 61.167,200.675 59.508,199.985 57.529 C 199.600 56.424,197.719 55.947,196.551 56.659 M172.333 71.167 L 172.333 85.500 173.809 85.500 L 175.284 85.500 175.388 79.708 C 175.503 73.328,175.567 72.790,176.416 71.059 C 178.581 66.649,184.640 65.812,186.576 69.656 C 187.266 71.028,187.333 71.841,187.333 78.842 L 187.333 85.500 188.930 85.500 L 190.528 85.500 190.449 78.292 C 190.350 69.263,190.215 68.464,188.475 66.576 C 185.254 63.081,179.352 63.426,175.877 67.313 L 175.338 67.917 175.336 62.375 L 175.333 56.833 173.833 56.833 L 172.333 56.833 172.333 71.167 M115.348 58.386 C 115.157 58.782,115.000 59.159,115.000 59.224 C 115.000 59.289,114.206 60.971,113.236 62.963 C 110.666 68.238,109.833 70.011,109.833 70.214 C 109.833 70.258,108.792 72.421,107.520 75.022 C 106.248 77.622,105.151 79.938,105.082 80.167 C 105.012 80.396,104.478 81.550,103.895 82.731 C 102.466 85.622,102.437 85.500,104.555 85.500 L 106.276 85.500 108.138 81.696 C 109.162 79.604,110.002 77.785,110.004 77.654 C 110.006 77.524,110.138 77.247,110.298 77.039 L 110.588 76.662 116.314 76.706 L 122.040 76.750 122.479 77.589 C 122.995 78.578,124.710 82.174,125.595 84.125 L 126.219 85.500 127.933 85.500 C 130.095 85.500,130.061 85.632,128.650 82.716 C 127.994 81.360,126.904 79.108,126.228 77.712 C 125.553 76.316,125.000 75.092,125.000 74.992 C 125.000 74.805,124.563 73.873,121.873 68.333 C 121.006 66.546,120.200 64.821,120.083 64.500 C 119.907 64.021,118.004 59.899,117.140 58.126 C 116.750 57.327,115.794 57.465,115.348 58.386 M139.364 64.524 C 138.804 64.740,138.085 65.233,137.406 65.868 L 136.333 66.872 136.333 65.769 L 136.333 64.667 134.750 64.667 L 133.167 64.667 133.167 75.083 L 133.167 85.500 134.735 85.500 L 136.303 85.500 136.378 79.042 C 136.458 72.097,136.513 71.617,137.421 69.825 C 138.475 67.745,139.850 67.003,141.917 67.397 L 142.583 67.524 143.307 66.309 L 144.032 65.095 143.669 64.802 C 142.806 64.103,140.799 63.973,139.364 64.524 M154.679 64.348 C 152.538 64.768,151.046 65.502,149.365 66.963 C 146.095 69.805,144.791 73.840,145.829 77.901 C 147.925 86.093,159.303 88.866,165.542 82.703 C 166.958 81.305,166.967 81.104,165.654 80.198 C 164.388 79.325,164.491 79.313,163.322 80.471 C 156.420 87.309,145.216 79.366,149.915 70.966 C 152.416 66.495,160.260 65.909,163.630 69.941 C 164.370 70.826,164.292 70.825,165.691 69.962 C 167.079 69.105,167.078 69.138,165.803 67.725 C 163.238 64.883,158.808 63.538,154.679 64.348 M120.014 72.208 L 120.481 73.333 116.243 73.333 L 112.005 73.333 112.562 72.292 C 113.072 71.341,114.011 69.335,115.638 65.727 L 116.250 64.370 117.899 67.727 C 118.806 69.573,119.758 71.590,120.014 72.208 M196.167 75.083 L 196.167 85.500 197.833 85.500 L 199.500 85.500 199.500 75.083 L 199.500 64.667 197.833 64.667 L 196.167 64.667 196.167 75.083 " stroke="none" fill="#fcfcfc" fill-rule="evenodd"></path><path id="path1" d="M51.789 20.723 C 51.676 20.830,51.302 21.066,50.958 21.247 C 50.615 21.428,50.333 21.676,50.333 21.798 C 50.333 21.920,50.268 21.979,50.188 21.930 C 49.988 21.806,49.310 22.418,49.461 22.585 C 49.528 22.659,49.503 22.674,49.404 22.618 C 49.233 22.521,47.058 24.569,46.962 24.917 C 46.937 25.008,46.869 25.068,46.812 25.048 C 46.674 25.003,46.194 25.535,46.179 25.750 C 46.172 25.842,46.110 25.918,46.042 25.919 C 45.763 25.924,44.997 26.751,45.077 26.959 C 45.127 27.091,45.088 27.138,44.984 27.073 C 44.800 26.959,43.631 27.974,43.741 28.152 C 43.775 28.207,43.437 28.514,42.991 28.834 C 42.544 29.154,42.087 29.636,41.974 29.904 C 41.861 30.172,41.745 30.319,41.716 30.232 C 41.652 30.041,39.232 32.334,39.292 32.530 C 39.315 32.605,39.240 32.648,39.125 32.625 C 39.010 32.602,38.935 32.677,38.958 32.792 C 38.981 32.906,38.904 33.000,38.786 33.000 C 38.514 33.000,36.795 34.730,36.912 34.885 C 36.961 34.948,36.948 34.960,36.884 34.912 C 36.726 34.791,34.333 37.185,34.333 37.464 C 34.333 37.586,34.270 37.647,34.192 37.599 C 34.028 37.498,33.233 38.348,33.298 38.554 C 33.322 38.630,33.279 38.653,33.202 38.605 C 33.126 38.558,32.192 39.410,31.127 40.497 C 30.062 41.585,29.038 42.557,28.852 42.657 C 28.664 42.757,28.552 42.942,28.601 43.069 C 28.650 43.196,28.598 43.356,28.486 43.426 C 28.355 43.506,28.325 43.482,28.401 43.359 C 28.649 42.958,28.309 43.197,27.399 44.065 C 26.779 44.656,26.502 45.035,26.588 45.174 C 26.673 45.312,26.651 45.343,26.523 45.264 C 26.323 45.141,25.167 46.197,25.167 46.503 C 25.167 46.593,25.101 46.667,25.020 46.667 C 24.780 46.667,21.999 49.399,22.000 49.635 C 22.000 49.755,21.935 49.813,21.856 49.764 C 21.776 49.715,21.570 49.836,21.397 50.033 C 21.194 50.265,21.171 50.342,21.333 50.252 C 21.471 50.176,21.528 50.174,21.461 50.248 C 21.394 50.322,21.169 50.472,20.961 50.580 C 20.753 50.689,20.604 50.870,20.629 50.984 C 20.654 51.098,20.609 51.150,20.527 51.100 C 20.332 50.979,18.815 52.589,18.966 52.757 C 19.031 52.828,18.999 52.839,18.897 52.780 C 18.794 52.722,18.269 53.139,17.730 53.709 C 17.191 54.278,16.676 54.745,16.586 54.747 C 16.495 54.748,16.324 54.953,16.205 55.200 C 16.087 55.448,15.786 55.803,15.536 55.988 C 14.787 56.547,14.504 56.872,14.614 57.050 C 14.671 57.142,14.646 57.173,14.557 57.119 C 14.375 57.006,12.394 58.805,12.458 59.024 C 12.481 59.103,12.444 59.150,12.375 59.129 C 12.306 59.108,12.033 59.296,11.767 59.546 C 11.502 59.796,11.352 60.001,11.434 60.002 C 11.516 60.004,11.396 60.104,11.167 60.224 C 10.938 60.345,10.769 60.532,10.792 60.639 C 10.815 60.746,10.718 60.833,10.578 60.833 C 10.015 60.833,9.815 63.230,10.286 64.333 C 10.423 64.654,10.603 65.154,10.688 65.443 C 10.794 65.810,10.992 66.023,11.340 66.144 C 11.614 66.240,11.819 66.415,11.794 66.534 C 11.766 66.673,11.898 66.735,12.167 66.708 C 12.436 66.681,12.508 66.715,12.371 66.803 C 12.059 67.006,12.669 67.509,13.180 67.472 C 13.402 67.455,13.761 67.501,13.979 67.572 C 14.289 67.674,14.346 67.653,14.239 67.476 C 14.126 67.288,14.148 67.287,14.372 67.468 C 14.703 67.737,16.620 67.571,17.000 67.241 C 17.242 67.031,17.325 67.000,17.656 67.000 C 17.877 67.000,20.758 64.156,20.710 63.986 C 20.689 63.908,20.801 63.892,20.960 63.949 C 21.120 64.006,21.204 64.001,21.147 63.938 C 21.033 63.809,22.114 62.667,22.350 62.667 C 22.433 62.667,22.481 62.576,22.458 62.466 C 22.435 62.355,22.494 62.262,22.589 62.258 C 22.815 62.248,25.189 59.966,25.083 59.861 C 25.038 59.816,25.230 59.640,25.509 59.470 C 25.788 59.300,25.970 59.086,25.913 58.993 C 25.855 58.901,25.875 58.846,25.957 58.871 C 26.157 58.933,28.404 56.848,28.652 56.370 C 28.761 56.162,28.923 56.036,29.012 56.091 C 29.102 56.146,29.154 56.117,29.129 56.026 C 29.104 55.935,29.363 55.602,29.704 55.287 C 30.045 54.971,30.270 54.659,30.204 54.593 C 30.138 54.526,30.166 54.497,30.266 54.528 C 30.520 54.605,32.696 52.587,32.542 52.418 C 32.473 52.342,32.502 52.329,32.606 52.388 C 32.842 52.523,33.234 52.077,33.088 51.841 C 33.028 51.744,33.117 51.667,33.290 51.667 C 33.667 51.667,34.891 50.452,34.712 50.254 C 34.641 50.177,34.667 50.161,34.769 50.219 C 34.995 50.348,35.553 49.775,35.375 49.598 C 35.306 49.529,35.362 49.497,35.500 49.528 C 35.637 49.558,35.731 49.490,35.708 49.375 C 35.685 49.260,35.757 49.185,35.867 49.208 C 35.978 49.231,36.073 49.137,36.079 49.000 C 36.086 48.858,36.215 48.771,36.379 48.799 C 36.537 48.826,36.667 48.771,36.667 48.678 C 36.667 48.585,36.944 48.263,37.284 47.962 C 38.635 46.768,39.359 45.999,39.144 45.989 C 39.019 45.984,39.090 45.909,39.302 45.824 C 39.515 45.739,39.642 45.595,39.585 45.503 C 39.527 45.409,39.589 45.378,39.728 45.431 C 39.894 45.495,39.991 45.400,40.028 45.138 C 40.062 44.904,40.197 44.749,40.371 44.748 C 40.745 44.746,42.349 43.165,42.216 42.930 C 42.159 42.831,42.171 42.802,42.241 42.865 C 42.383 42.993,42.528 42.891,43.619 41.892 C 44.041 41.506,44.324 41.120,44.261 41.017 C 44.196 40.913,44.260 40.833,44.407 40.833 C 44.561 40.833,44.672 40.681,44.680 40.458 C 44.687 40.252,44.732 40.182,44.780 40.302 C 44.849 40.472,44.937 40.458,45.180 40.238 C 45.352 40.083,45.451 39.889,45.400 39.807 C 45.350 39.725,45.381 39.679,45.469 39.704 C 45.558 39.729,45.938 39.428,46.315 39.035 C 46.692 38.641,47.000 38.361,47.000 38.412 C 47.000 38.462,47.469 38.039,48.042 37.470 C 48.615 36.901,49.067 36.383,49.047 36.317 C 49.027 36.252,49.135 36.098,49.287 35.974 C 49.524 35.782,49.543 35.786,49.420 36.000 C 49.328 36.159,49.406 36.136,49.634 35.936 C 49.831 35.763,49.945 35.546,49.887 35.452 C 49.829 35.358,49.856 35.328,49.947 35.384 C 50.163 35.517,51.546 34.105,51.379 33.921 C 51.308 33.844,51.331 33.826,51.430 33.882 C 51.660 34.013,53.385 32.278,53.213 32.089 C 53.142 32.011,53.176 32.000,53.290 32.065 C 53.404 32.131,53.654 32.036,53.850 31.853 C 54.213 31.515,55.361 31.228,55.646 31.404 C 55.734 31.458,55.843 31.408,55.889 31.293 C 55.942 31.163,55.979 31.190,55.987 31.365 C 56.006 31.768,56.301 31.897,56.632 31.647 C 56.870 31.468,56.884 31.470,56.716 31.659 C 56.500 31.902,57.223 32.966,57.539 32.871 C 57.623 32.846,57.651 32.891,57.601 32.971 C 57.490 33.151,58.354 33.932,58.583 33.859 C 58.675 33.829,58.692 33.864,58.621 33.935 C 58.450 34.106,60.009 35.681,60.220 35.550 C 60.311 35.494,60.338 35.525,60.280 35.619 C 60.222 35.712,60.336 35.930,60.533 36.103 C 60.730 36.275,60.829 36.311,60.753 36.183 C 60.659 36.023,60.678 35.987,60.810 36.069 C 60.918 36.135,60.971 36.245,60.929 36.313 C 60.829 36.474,63.738 39.364,63.887 39.252 C 63.949 39.205,63.969 39.210,63.931 39.264 C 63.851 39.375,64.521 40.083,64.705 40.083 C 64.772 40.083,64.946 40.253,65.092 40.461 C 65.237 40.669,65.438 40.789,65.537 40.727 C 65.637 40.666,65.672 40.690,65.616 40.780 C 65.560 40.871,65.633 41.116,65.778 41.323 C 65.986 41.620,66.073 41.652,66.185 41.475 C 66.300 41.295,66.329 41.302,66.331 41.513 C 66.334 41.809,67.006 42.500,67.293 42.500 C 67.396 42.500,67.534 42.587,67.599 42.692 C 67.680 42.822,67.642 42.840,67.484 42.747 C 67.355 42.671,67.400 42.784,67.583 42.998 C 68.329 43.868,68.667 44.209,68.667 44.090 C 68.667 44.021,68.895 44.216,69.175 44.524 C 70.389 45.859,70.718 46.155,70.880 46.055 C 70.974 45.996,71.005 46.023,70.949 46.115 C 70.848 46.278,73.248 48.750,73.507 48.750 C 73.579 48.750,73.701 48.818,73.778 48.902 C 73.860 48.992,73.815 48.999,73.667 48.921 C 73.529 48.847,73.974 49.357,74.654 50.052 C 75.335 50.748,75.956 51.277,76.033 51.229 C 76.111 51.181,76.154 51.213,76.129 51.301 C 76.073 51.495,76.945 52.333,77.203 52.333 C 77.305 52.333,77.340 52.382,77.280 52.442 C 77.133 52.589,79.184 54.675,79.365 54.564 C 79.444 54.515,79.489 54.537,79.465 54.613 C 79.396 54.833,80.216 55.683,80.422 55.604 C 80.524 55.565,80.743 55.783,80.908 56.089 C 81.073 56.395,81.442 56.760,81.729 56.902 C 82.015 57.043,82.181 57.161,82.098 57.163 C 82.014 57.165,82.870 58.101,84.000 59.243 C 85.130 60.385,86.129 61.274,86.220 61.217 C 86.310 61.161,86.339 61.189,86.283 61.280 C 86.152 61.491,87.561 62.883,87.732 62.712 C 87.803 62.641,87.836 62.696,87.806 62.833 C 87.775 62.972,87.849 63.063,87.971 63.038 C 88.092 63.012,88.152 63.056,88.103 63.135 C 87.913 63.443,89.944 65.121,90.387 65.022 C 90.463 65.006,90.477 65.070,90.418 65.165 C 90.359 65.261,90.222 65.296,90.113 65.243 C 90.005 65.190,90.179 65.358,90.500 65.615 C 90.821 65.873,91.379 66.367,91.740 66.713 C 92.444 67.388,92.929 67.584,93.586 67.459 C 93.814 67.415,94.000 67.455,94.000 67.546 C 94.000 67.649,94.382 67.678,94.993 67.623 C 96.030 67.529,97.000 67.021,97.000 66.572 C 97.000 66.441,97.056 66.342,97.125 66.353 C 97.486 66.410,97.731 66.280,98.264 65.747 C 98.595 65.416,98.799 65.079,98.732 64.972 C 98.660 64.855,98.689 64.828,98.808 64.901 C 98.926 64.974,99.065 64.850,99.167 64.583 C 99.390 63.996,99.377 63.789,99.125 63.931 C 99.010 63.996,99.085 63.885,99.292 63.685 C 99.702 63.286,99.787 63.075,99.458 63.272 C 99.316 63.358,99.322 63.308,99.478 63.116 C 99.694 62.850,99.677 61.792,99.438 60.721 C 99.308 60.136,98.803 59.476,98.559 59.570 C 98.435 59.617,98.333 59.584,98.333 59.495 C 98.333 59.406,98.418 59.333,98.520 59.333 C 98.650 59.333,98.644 59.257,98.502 59.085 C 98.388 58.949,98.217 58.885,98.122 58.944 C 98.027 59.003,97.995 58.976,98.052 58.883 C 98.183 58.672,97.437 57.952,97.265 58.123 C 97.196 58.193,97.164 58.137,97.194 58.000 C 97.228 57.848,97.152 57.772,97.000 57.806 C 96.863 57.836,96.806 57.806,96.874 57.738 C 97.071 57.540,96.670 57.178,96.363 57.276 C 96.162 57.340,96.143 57.322,96.295 57.212 C 96.512 57.056,95.402 55.866,95.125 55.958 C 95.056 55.981,94.999 55.906,94.997 55.792 C 94.996 55.653,94.941 55.667,94.833 55.833 C 94.692 56.052,94.671 56.050,94.669 55.819 C 94.666 55.471,93.809 54.347,93.542 54.339 C 93.427 54.336,93.333 54.254,93.333 54.157 C 93.333 54.060,93.240 54.034,93.125 54.100 C 93.010 54.166,92.971 54.160,93.038 54.086 C 93.183 53.926,91.006 51.643,90.819 51.759 C 90.748 51.803,90.635 51.751,90.569 51.644 C 90.487 51.510,90.522 51.493,90.683 51.590 C 90.811 51.668,90.561 51.375,90.127 50.938 C 89.650 50.459,89.259 50.193,89.140 50.266 C 89.006 50.349,88.978 50.297,89.053 50.102 C 89.113 49.945,89.104 49.852,89.032 49.897 C 88.960 49.942,88.792 49.909,88.659 49.825 C 88.475 49.709,88.470 49.671,88.637 49.669 C 88.803 49.667,88.793 49.602,88.597 49.406 C 88.453 49.263,88.249 49.199,88.142 49.265 C 88.021 49.340,87.993 49.312,88.068 49.191 C 88.135 49.083,88.073 48.954,87.928 48.898 C 87.785 48.843,87.705 48.739,87.750 48.667 C 87.795 48.594,87.701 48.485,87.541 48.423 C 87.216 48.299,87.060 48.348,87.129 48.554 C 87.154 48.630,87.094 48.642,86.996 48.581 C 86.872 48.504,86.870 48.406,86.990 48.262 C 87.196 48.013,86.486 47.253,86.238 47.457 C 86.153 47.526,86.140 47.514,86.210 47.429 C 86.364 47.242,85.678 46.473,85.472 46.601 C 85.391 46.651,85.344 46.630,85.367 46.554 C 85.435 46.331,84.491 45.417,84.192 45.416 C 84.041 45.416,83.917 45.293,83.917 45.142 C 83.917 44.837,81.370 42.390,81.128 42.462 C 81.044 42.488,81.017 42.441,81.067 42.360 C 81.189 42.163,80.592 41.630,80.431 41.791 C 80.362 41.860,80.329 41.842,80.357 41.750 C 80.444 41.469,79.540 40.623,79.300 40.762 C 79.181 40.830,79.137 40.827,79.202 40.755 C 79.366 40.574,79.022 39.967,78.825 40.089 C 78.738 40.142,78.667 40.102,78.667 40.000 C 78.667 39.898,78.590 39.861,78.496 39.919 C 78.402 39.977,78.345 39.963,78.368 39.887 C 78.434 39.679,77.639 38.833,77.377 38.833 C 77.250 38.833,77.186 38.771,77.233 38.695 C 77.319 38.555,75.794 36.952,75.657 37.038 C 75.616 37.063,75.602 37.052,75.625 37.014 C 75.682 36.919,74.448 35.834,74.282 35.833 C 74.208 35.833,74.185 35.772,74.231 35.697 C 74.278 35.622,74.158 35.453,73.966 35.322 C 73.774 35.191,73.430 34.879,73.202 34.630 C 72.973 34.380,72.722 34.216,72.643 34.264 C 72.564 34.313,72.500 34.252,72.500 34.128 C 72.500 33.833,71.097 32.458,70.948 32.607 C 70.885 32.671,70.833 32.629,70.833 32.515 C 70.833 32.308,70.028 31.417,69.792 31.362 C 69.723 31.346,69.685 31.309,69.708 31.280 C 69.767 31.204,69.277 30.730,69.114 30.706 C 69.040 30.695,68.712 30.382,68.387 30.011 C 68.062 29.640,67.729 29.378,67.648 29.428 C 67.567 29.478,67.500 29.419,67.500 29.297 C 67.500 29.055,66.925 28.500,66.675 28.500 C 66.589 28.500,66.466 28.413,66.401 28.308 C 66.325 28.185,66.355 28.161,66.485 28.241 C 66.597 28.310,66.312 27.978,65.851 27.502 C 65.391 27.027,64.934 26.688,64.836 26.748 C 64.738 26.809,64.678 26.796,64.701 26.721 C 64.772 26.492,64.120 25.843,63.929 25.952 C 63.830 26.008,63.800 25.997,63.861 25.929 C 64.019 25.754,63.319 24.989,63.116 25.115 C 63.024 25.172,62.997 25.139,63.057 25.042 C 63.117 24.945,62.923 24.710,62.625 24.519 C 62.327 24.328,62.149 24.171,62.229 24.169 C 62.309 24.168,62.281 24.055,62.168 23.919 C 62.055 23.782,61.884 23.719,61.789 23.778 C 61.693 23.837,61.662 23.810,61.719 23.718 C 61.802 23.582,61.104 22.788,60.958 22.853 C 60.935 22.863,60.522 22.482,60.039 22.007 C 59.557 21.532,58.969 21.109,58.733 21.066 C 58.497 21.023,58.141 20.886,57.943 20.761 C 57.468 20.462,52.101 20.428,51.789 20.723 M213.417 64.483 C 212.121 64.882,210.679 65.607,210.559 65.919 C 210.507 66.054,210.412 66.132,210.347 66.092 C 210.282 66.052,209.840 66.422,209.365 66.915 L 208.500 67.811 208.500 66.232 L 208.500 64.654 206.958 64.702 L 205.417 64.750 205.417 75.083 L 205.417 85.417 206.917 85.417 L 208.417 85.417 208.525 79.833 C 208.638 73.999,208.792 72.394,209.343 71.315 C 209.525 70.958,209.616 70.666,209.545 70.664 C 209.474 70.663,209.496 70.606,209.592 70.539 C 209.689 70.472,209.939 70.135,210.147 69.792 C 210.356 69.448,210.577 69.166,210.639 69.165 C 210.700 69.164,211.022 68.906,211.355 68.590 C 212.597 67.413,215.741 66.838,217.415 67.482 C 218.061 67.731,219.515 68.667,219.255 68.667 C 219.185 68.667,219.312 68.910,219.537 69.208 C 219.898 69.685,220.043 70.140,220.239 71.417 C 220.268 71.600,220.309 71.787,220.332 71.833 C 220.394 71.959,220.425 73.860,220.464 79.958 L 220.500 85.500 222.089 85.500 L 223.678 85.500 223.622 78.792 C 223.567 72.024,223.479 70.246,223.186 69.953 C 223.098 69.865,223.066 69.689,223.114 69.563 C 223.163 69.437,223.115 69.333,223.008 69.333 C 222.901 69.333,222.858 69.261,222.913 69.173 C 223.016 69.006,222.274 67.407,222.047 67.307 C 221.975 67.276,221.707 66.969,221.450 66.625 C 221.193 66.281,220.870 66.000,220.732 66.000 C 220.593 66.000,220.527 65.925,220.583 65.833 C 220.640 65.742,220.612 65.667,220.522 65.667 C 220.431 65.667,220.258 65.573,220.137 65.458 C 218.929 64.316,215.551 63.826,213.417 64.483 M238.000 64.361 C 237.679 64.446,237.234 64.545,237.010 64.580 C 235.547 64.811,231.662 67.253,231.806 67.851 C 231.836 67.979,231.805 68.027,231.736 67.958 C 231.576 67.798,230.977 68.329,231.098 68.523 C 231.147 68.604,231.071 68.714,230.927 68.769 C 230.784 68.824,230.667 68.973,230.667 69.101 C 230.667 69.229,230.587 69.333,230.490 69.333 C 230.393 69.333,230.356 69.402,230.408 69.486 C 230.460 69.570,230.445 69.663,230.376 69.694 C 230.183 69.780,229.521 71.257,229.322 72.047 C 228.923 73.630,228.848 74.136,228.848 75.250 C 228.848 76.295,228.911 76.773,229.230 78.146 C 229.432 79.016,230.104 80.555,230.441 80.923 C 230.637 81.137,230.762 81.349,230.718 81.393 C 230.674 81.437,230.797 81.558,230.990 81.662 C 231.184 81.765,231.305 81.911,231.259 81.985 C 231.156 82.152,232.252 83.144,233.601 84.105 C 234.691 84.882,236.653 85.672,237.917 85.842 C 238.996 85.988,242.818 85.880,243.333 85.690 C 243.654 85.572,244.102 85.439,244.328 85.394 C 244.554 85.350,244.836 85.234,244.953 85.136 C 245.071 85.039,245.167 85.007,245.167 85.066 C 245.167 85.544,248.491 83.212,249.340 82.139 C 250.191 81.062,250.187 81.044,248.915 80.208 C 247.647 79.376,246.875 79.407,246.827 80.294 C 246.823 80.361,246.363 80.754,245.804 81.167 C 245.246 81.579,244.703 81.992,244.599 82.083 C 244.494 82.175,244.298 82.278,244.163 82.312 C 244.027 82.346,243.542 82.484,243.083 82.618 C 242.625 82.753,242.038 82.854,241.780 82.844 C 241.521 82.834,241.345 82.884,241.389 82.955 C 241.433 83.025,240.958 83.083,240.334 83.083 C 239.710 83.083,239.240 83.017,239.290 82.936 C 239.340 82.855,239.135 82.825,238.835 82.869 C 238.498 82.918,238.046 82.831,237.653 82.641 C 237.303 82.472,236.903 82.333,236.764 82.333 C 236.461 82.333,234.478 81.077,234.596 80.960 C 234.641 80.915,234.426 80.657,234.119 80.387 C 233.811 80.117,233.511 79.769,233.452 79.615 C 233.392 79.460,233.262 79.333,233.162 79.333 C 233.062 79.333,233.023 79.264,233.075 79.180 C 233.127 79.096,233.051 78.908,232.906 78.763 C 232.761 78.619,232.681 78.500,232.729 78.500 C 232.776 78.500,232.675 78.181,232.504 77.792 C 231.206 74.836,231.988 71.827,234.750 69.145 C 235.790 68.136,236.405 67.821,237.875 67.548 C 238.127 67.501,238.333 67.408,238.333 67.342 C 238.333 67.181,241.945 67.234,242.583 67.404 C 244.515 67.917,246.227 68.975,246.977 70.118 C 247.441 70.826,247.674 70.810,248.947 69.980 C 249.885 69.369,250.299 68.833,249.833 68.833 C 249.742 68.833,249.667 68.729,249.667 68.601 C 249.667 68.473,249.549 68.324,249.406 68.269 C 249.263 68.214,249.185 68.106,249.232 68.029 C 249.385 67.782,247.094 65.813,246.852 65.983 C 246.816 66.008,246.741 65.957,246.685 65.870 C 246.523 65.617,245.170 64.978,245.009 65.078 C 244.928 65.128,244.837 65.095,244.806 65.006 C 244.775 64.916,244.600 64.815,244.417 64.780 C 244.233 64.745,243.971 64.673,243.833 64.619 C 242.794 64.215,239.164 64.054,238.000 64.361 M263.471 64.251 C 263.435 64.287,263.146 64.358,262.828 64.411 C 261.989 64.549,260.333 65.181,260.333 65.363 C 260.333 65.449,260.273 65.483,260.200 65.437 C 259.994 65.310,257.882 66.956,257.372 67.641 C 257.123 67.976,256.824 68.310,256.709 68.383 C 256.594 68.457,256.500 68.625,256.500 68.758 C 256.500 68.891,256.426 69.000,256.337 69.000 C 256.247 69.000,256.126 69.188,256.068 69.417 C 256.011 69.646,255.897 69.833,255.815 69.833 C 255.734 69.833,255.682 69.890,255.701 69.958 C 255.720 70.027,255.607 70.325,255.449 70.620 C 255.292 70.915,255.176 71.215,255.191 71.287 C 255.207 71.358,255.175 71.529,255.121 71.667 C 254.546 73.122,254.583 78.222,255.173 78.667 C 255.233 78.712,255.282 78.879,255.280 79.036 C 255.261 81.178,259.461 85.021,262.583 85.719 C 264.694 86.191,268.351 85.966,269.567 85.290 C 269.760 85.183,269.970 85.111,270.035 85.129 C 270.404 85.233,274.167 82.189,274.167 81.786 C 274.167 81.713,274.314 81.495,274.494 81.301 C 274.674 81.108,274.782 80.886,274.734 80.808 C 274.686 80.730,274.711 80.667,274.790 80.667 C 274.869 80.667,275.031 80.395,275.151 80.063 C 275.378 79.437,275.249 79.176,274.708 79.169 C 274.594 79.168,274.500 79.084,274.500 78.982 C 274.500 78.881,274.384 78.842,274.241 78.897 C 274.099 78.952,274.024 78.930,274.074 78.849 C 274.145 78.734,273.054 78.167,272.761 78.167 C 272.725 78.167,272.465 78.523,272.184 78.958 C 271.341 80.266,271.115 80.559,270.527 81.111 C 269.876 81.723,268.354 82.519,267.333 82.781 C 266.711 82.940,263.621 82.958,263.333 82.803 C 263.196 82.729,262.654 82.514,262.130 82.324 C 261.509 82.100,260.899 81.708,260.380 81.201 C 259.942 80.773,259.522 80.441,259.446 80.465 C 259.370 80.489,259.353 80.436,259.408 80.347 C 259.463 80.258,259.228 79.750,258.885 79.218 C 258.543 78.686,258.249 78.175,258.233 78.083 C 258.217 77.992,258.120 77.472,258.019 76.928 C 257.917 76.384,257.833 75.840,257.833 75.719 C 257.833 75.541,259.520 75.500,266.935 75.500 L 276.038 75.500 275.951 74.375 C 275.808 72.523,274.998 69.500,274.643 69.500 C 274.565 69.500,274.500 69.395,274.500 69.268 C 274.500 69.140,274.282 68.802,274.016 68.518 C 273.751 68.233,273.575 68.000,273.627 68.000 C 273.679 68.000,273.270 67.566,272.717 67.036 C 271.812 66.166,269.667 64.804,269.667 65.099 C 269.667 65.165,269.535 65.101,269.375 64.958 C 269.025 64.646,267.723 64.276,267.405 64.398 C 267.280 64.446,267.140 64.425,267.094 64.351 C 267.013 64.219,263.597 64.125,263.471 64.251 M287.167 64.344 C 286.251 64.616,285.376 65.181,284.583 66.014 L 283.750 66.890 283.667 65.820 L 283.583 64.750 282.000 64.703 L 280.417 64.656 280.417 75.083 L 280.417 85.511 282.000 85.464 L 283.583 85.417 283.619 80.000 C 283.638 77.021,283.731 73.955,283.824 73.187 C 283.917 72.419,283.953 71.725,283.903 71.645 C 283.854 71.565,283.899 71.500,284.004 71.500 C 284.109 71.500,284.163 71.406,284.125 71.292 C 284.087 71.177,284.231 70.735,284.444 70.309 C 284.658 69.883,284.833 69.463,284.833 69.374 C 284.833 69.144,286.190 67.634,286.299 67.743 C 286.349 67.793,286.523 67.713,286.686 67.566 C 287.010 67.273,288.568 67.182,289.375 67.410 C 289.739 67.512,289.833 67.484,289.833 67.269 C 289.833 67.121,289.913 67.000,290.010 67.000 C 290.107 67.000,290.140 66.925,290.083 66.833 C 290.027 66.742,290.060 66.667,290.157 66.667 C 290.254 66.667,290.333 66.554,290.333 66.417 C 290.333 66.279,290.392 66.167,290.464 66.167 C 290.670 66.167,291.131 65.273,291.046 65.038 C 290.825 64.424,288.377 63.986,287.167 64.344 M314.000 64.350 C 313.771 64.447,313.321 64.546,313.000 64.572 C 311.453 64.693,306.408 68.019,306.949 68.560 C 307.008 68.619,306.971 68.667,306.867 68.667 C 306.627 68.667,305.820 69.843,305.934 70.028 C 305.981 70.104,305.932 70.167,305.825 70.167 C 305.718 70.167,305.676 70.283,305.730 70.425 C 305.785 70.568,305.759 70.640,305.673 70.587 C 305.544 70.508,305.268 71.200,305.074 72.083 C 304.681 73.876,304.587 75.847,304.835 77.087 C 304.945 77.635,305.032 78.215,305.028 78.375 C 305.024 78.535,305.094 78.667,305.184 78.667 C 305.274 78.667,305.327 78.760,305.302 78.875 C 305.112 79.724,306.951 82.248,308.750 83.610 C 309.562 84.225,311.332 85.201,311.336 85.036 C 311.337 84.970,311.396 85.008,311.467 85.119 C 311.627 85.371,313.606 85.892,313.929 85.768 C 314.060 85.718,314.167 85.749,314.167 85.837 C 314.167 86.008,317.815 85.962,318.827 85.778 C 319.765 85.608,322.516 84.485,322.613 84.232 C 322.662 84.105,322.801 84.000,322.923 84.000 C 323.044 84.000,323.411 83.747,323.738 83.439 C 324.065 83.130,324.333 82.908,324.333 82.944 C 324.333 82.981,324.577 82.728,324.875 82.381 C 325.172 82.034,325.461 81.712,325.516 81.667 C 325.624 81.577,325.600 80.867,325.486 80.781 C 323.830 79.541,323.344 79.361,322.918 79.832 C 322.751 80.016,322.675 80.167,322.749 80.167 C 322.823 80.167,322.591 80.383,322.233 80.646 C 321.876 80.910,321.433 81.266,321.250 81.438 C 320.749 81.907,319.061 82.667,318.260 82.783 C 317.216 82.935,315.039 83.072,315.095 82.981 C 315.151 82.890,314.465 82.750,313.233 82.602 C 312.551 82.520,309.842 80.771,309.801 80.386 C 309.793 80.311,309.617 80.025,309.410 79.750 C 307.909 77.758,307.368 74.727,308.147 72.677 C 308.320 72.222,308.420 71.809,308.370 71.759 C 308.319 71.708,308.378 71.667,308.500 71.667 C 308.622 71.667,308.678 71.623,308.625 71.569 C 308.571 71.516,308.631 71.347,308.758 71.194 C 308.885 71.042,309.215 70.600,309.493 70.212 C 310.971 68.145,313.641 67.066,316.946 67.200 C 317.617 67.228,318.167 67.291,318.167 67.341 C 318.167 67.390,318.622 67.532,319.178 67.656 C 319.734 67.779,320.278 67.963,320.386 68.065 C 320.495 68.167,320.896 68.454,321.278 68.702 C 321.659 68.950,322.256 69.493,322.604 69.910 C 323.383 70.840,323.519 70.844,324.765 69.958 C 325.670 69.314,326.033 68.667,325.488 68.667 C 325.403 68.667,325.333 68.572,325.333 68.455 C 325.333 68.164,323.837 66.478,323.670 66.581 C 323.596 66.627,323.499 66.571,323.455 66.457 C 322.962 65.172,315.825 63.582,314.000 64.350 M339.339 64.330 C 339.207 64.411,339.051 64.448,338.992 64.412 C 338.672 64.214,335.500 65.509,335.500 65.838 C 335.500 65.938,335.432 65.977,335.348 65.926 C 335.158 65.809,332.500 68.289,332.500 68.583 C 332.500 68.701,332.380 68.844,332.233 68.900 C 332.075 68.961,332.006 69.109,332.064 69.260 C 332.121 69.407,332.092 69.474,331.998 69.415 C 331.907 69.359,331.833 69.406,331.833 69.519 C 331.833 69.631,331.729 69.842,331.600 69.987 C 331.240 70.393,330.517 72.639,330.600 73.094 C 330.640 73.317,330.605 73.500,330.522 73.500 C 330.437 73.500,330.397 74.253,330.429 75.208 C 330.462 76.148,330.492 77.082,330.497 77.283 C 330.501 77.485,330.580 77.697,330.672 77.753 C 330.764 77.810,330.794 77.929,330.738 78.019 C 330.683 78.108,330.715 78.274,330.809 78.387 C 330.903 78.501,331.017 78.797,331.062 79.045 C 331.376 80.777,335.079 84.778,336.647 85.080 C 336.860 85.121,337.122 85.227,337.231 85.317 C 337.339 85.407,337.612 85.516,337.839 85.561 C 338.065 85.605,338.654 85.730,339.149 85.839 C 340.005 86.028,342.890 85.985,343.816 85.769 C 345.260 85.433,346.957 84.594,347.914 83.742 C 348.270 83.425,348.613 83.167,348.677 83.167 C 349.131 83.167,351.354 79.565,351.559 78.498 C 351.602 78.270,351.719 77.732,351.817 77.303 C 352.451 74.541,351.468 70.253,349.740 68.250 C 349.503 67.975,349.364 67.855,349.430 67.984 C 349.510 68.138,349.486 68.177,349.359 68.099 C 349.253 68.034,349.167 67.900,349.167 67.801 C 349.167 67.548,347.960 66.334,347.708 66.333 C 347.594 66.333,347.500 66.261,347.500 66.174 C 347.500 65.793,344.357 64.363,344.002 64.582 C 343.909 64.639,343.833 64.619,343.833 64.538 C 343.833 64.352,343.826 64.351,341.498 64.258 C 340.442 64.216,339.471 64.249,339.339 64.330 M365.542 64.278 C 365.244 64.320,365.000 64.410,365.000 64.477 C 365.000 64.545,364.831 64.603,364.625 64.606 C 364.026 64.616,362.421 65.444,362.000 65.960 C 361.863 66.128,361.614 66.318,361.448 66.382 C 361.282 66.446,361.173 66.554,361.206 66.624 C 361.239 66.693,361.056 66.951,360.800 67.198 L 360.333 67.645 360.333 66.156 L 360.333 64.667 358.833 64.667 L 357.333 64.667 357.333 75.083 L 357.333 85.500 358.817 85.500 L 360.302 85.500 360.371 79.542 C 360.445 73.071,360.595 71.801,361.441 70.462 C 361.659 70.116,361.793 69.833,361.739 69.833 C 361.526 69.833,363.447 68.154,363.919 67.929 C 364.702 67.554,365.406 67.278,365.521 67.300 C 365.579 67.311,366.012 67.259,366.485 67.184 C 366.957 67.109,367.383 67.112,367.432 67.191 C 367.480 67.269,367.623 67.333,367.749 67.333 C 367.875 67.333,368.189 67.414,368.447 67.512 C 368.706 67.610,368.931 67.666,368.949 67.637 C 369.023 67.516,370.167 68.749,370.167 68.949 C 370.167 69.069,370.242 69.167,370.333 69.167 C 370.425 69.167,370.500 69.279,370.500 69.417 C 370.500 69.554,370.579 69.667,370.677 69.667 C 370.774 69.667,370.812 69.734,370.761 69.816 C 370.710 69.898,370.752 70.367,370.854 70.857 C 370.955 71.348,371.028 72.374,371.015 73.138 C 371.002 73.901,371.049 74.489,371.121 74.445 C 371.192 74.401,371.229 76.870,371.204 79.932 L 371.158 85.500 372.704 85.500 L 374.250 85.500 374.250 80.625 C 374.250 74.864,374.359 73.348,374.905 71.477 C 375.420 69.715,376.885 68.026,378.242 67.630 C 378.613 67.521,378.954 67.392,379.000 67.341 C 379.204 67.118,381.789 67.115,382.000 67.338 C 382.046 67.386,382.402 67.566,382.791 67.738 C 383.507 68.054,384.025 68.606,384.600 69.667 C 384.896 70.211,384.920 70.759,384.969 77.875 L 385.021 85.500 386.608 85.500 L 388.196 85.500 388.118 77.875 C 388.042 70.373,387.942 69.003,387.447 68.648 C 387.369 68.592,387.316 68.517,387.330 68.481 C 387.451 68.167,386.222 66.332,385.461 65.692 C 382.697 63.366,377.823 63.784,375.275 66.565 C 375.013 66.850,374.529 67.406,374.199 67.801 L 373.599 68.519 373.233 67.801 C 372.550 66.459,369.500 63.844,369.500 64.600 C 369.500 64.659,369.381 64.609,369.235 64.488 C 368.964 64.263,366.600 64.129,365.542 64.278 M266.667 67.257 C 266.987 67.281,267.475 67.420,267.750 67.566 C 268.025 67.712,268.364 67.832,268.503 67.832 C 268.767 67.833,269.849 68.516,270.406 69.033 C 270.584 69.198,270.795 69.333,270.875 69.333 C 270.954 69.333,270.976 69.404,270.923 69.490 C 270.870 69.576,270.939 69.709,271.076 69.786 C 271.316 69.920,272.161 71.513,272.405 72.292 L 272.522 72.667 265.339 72.667 C 258.549 72.667,258.163 72.651,258.311 72.375 C 258.397 72.215,258.473 72.026,258.480 71.957 C 258.487 71.887,258.604 71.615,258.740 71.353 C 258.876 71.090,258.940 70.829,258.882 70.771 C 258.825 70.714,258.857 70.667,258.953 70.667 C 259.049 70.667,259.257 70.470,259.415 70.229 C 259.605 69.940,259.625 69.837,259.476 69.926 C 259.352 69.999,259.566 69.749,259.951 69.370 C 260.783 68.552,261.805 67.852,262.307 67.755 C 262.506 67.717,262.761 67.625,262.876 67.551 C 263.162 67.366,265.526 67.030,265.833 67.131 C 265.971 67.176,266.346 67.233,266.667 67.257 M344.216 67.748 C 344.792 67.881,345.950 68.755,346.570 69.525 C 346.914 69.952,347.322 70.440,347.477 70.609 C 349.412 72.728,349.131 78.882,347.038 80.219 C 346.922 80.293,346.850 80.405,346.880 80.469 C 346.932 80.581,345.961 81.599,345.871 81.526 C 345.846 81.506,345.571 81.683,345.261 81.920 C 344.951 82.156,344.504 82.385,344.269 82.427 C 344.034 82.470,343.634 82.590,343.379 82.695 C 341.650 83.403,338.231 82.809,336.606 81.518 C 335.641 80.751,334.167 78.692,334.167 78.110 C 334.167 77.958,334.107 77.833,334.034 77.833 C 333.473 77.833,333.677 73.320,334.300 71.937 C 334.502 71.490,334.667 71.059,334.667 70.979 C 334.667 70.899,334.742 70.833,334.833 70.833 C 334.925 70.833,335.002 70.740,335.004 70.625 C 335.013 70.078,337.827 67.705,338.649 67.551 C 341.091 67.093,341.574 67.073,342.745 67.376 C 343.389 67.542,344.051 67.710,344.216 67.748 M295.738 81.174 C 294.152 82.215,294.409 86.039,296.042 85.693 C 296.110 85.679,296.167 85.742,296.167 85.833 C 296.167 86.091,297.791 86.030,298.327 85.753 C 298.869 85.473,299.538 84.696,299.412 84.492 C 299.366 84.417,299.404 84.309,299.497 84.252 C 299.796 84.067,299.689 82.622,299.334 82.040 C 298.633 80.890,296.832 80.457,295.738 81.174 " stroke="none" fill="#5cbcfc" fill-rule="evenodd"></path><path id="path2" d="M48.158 23.458 L 47.583 24.083 48.208 23.509 C 48.552 23.193,48.833 22.912,48.833 22.884 C 48.833 22.757,48.692 22.877,48.158 23.458 M46.491 25.125 L 45.917 25.750 46.542 25.176 C 46.885 24.860,47.167 24.578,47.167 24.551 C 47.167 24.423,47.026 24.543,46.491 25.125 M63.167 24.885 C 63.167 24.914,63.410 25.158,63.708 25.427 L 64.250 25.917 63.760 25.375 C 63.304 24.870,63.167 24.757,63.167 24.885 M52.667 32.917 C 52.262 33.329,51.968 33.667,52.014 33.667 C 52.060 33.667,52.428 33.329,52.833 32.917 C 53.238 32.504,53.532 32.167,53.486 32.167 C 53.440 32.167,53.072 32.504,52.667 32.917 M72.250 33.667 C 72.608 34.033,72.938 34.333,72.984 34.333 C 73.030 34.333,72.775 34.033,72.417 33.667 C 72.059 33.300,71.728 33.000,71.682 33.000 C 71.637 33.000,71.892 33.300,72.250 33.667 M51.000 34.583 C 50.595 34.996,50.301 35.333,50.347 35.333 C 50.393 35.333,50.762 34.996,51.167 34.583 C 51.572 34.171,51.865 33.833,51.819 33.833 C 51.774 33.833,51.405 34.171,51.000 34.583 M60.083 35.833 C 60.997 36.750,61.781 37.500,61.827 37.500 C 61.873 37.500,61.163 36.750,60.250 35.833 C 59.337 34.917,58.552 34.167,58.506 34.167 C 58.460 34.167,59.170 34.917,60.083 35.833 M33.161 38.292 L 32.250 39.250 33.208 38.339 C 33.735 37.838,34.167 37.407,34.167 37.381 C 34.167 37.257,34.007 37.401,33.161 38.292 M81.493 42.542 C 81.902 42.977,82.258 43.333,82.285 43.333 C 82.410 43.333,82.278 43.184,81.542 42.493 L 80.750 41.750 81.493 42.542 M41.911 43.542 L 40.917 44.583 41.958 43.589 C 42.926 42.664,43.076 42.500,42.953 42.500 C 42.927 42.500,42.459 42.969,41.911 43.542 M54.431 43.958 C 54.362 44.027,54.162 44.093,53.986 44.104 C 53.810 44.116,53.559 44.134,53.426 44.146 C 53.294 44.157,52.862 44.485,52.467 44.875 C 52.071 45.265,50.847 46.418,49.748 47.439 C 48.649 48.459,47.300 49.758,46.750 50.325 C 46.200 50.891,45.225 51.856,44.583 52.467 C 41.558 55.350,33.973 62.771,27.599 69.083 C 25.192 71.467,22.667 73.952,21.987 74.606 C 19.596 76.905,19.800 75.579,19.865 88.417 C 19.924 99.912,19.876 99.592,21.671 100.335 C 21.944 100.448,22.167 100.590,22.167 100.651 C 22.167 100.886,23.812 100.899,55.500 100.907 L 88.083 100.917 88.750 100.446 C 89.116 100.187,89.628 99.718,89.887 99.404 C 90.146 99.090,90.466 98.833,90.600 98.833 C 91.192 98.833,91.240 98.118,91.300 88.417 C 91.339 82.012,91.300 78.722,91.181 78.319 C 90.840 77.174,87.536 73.789,67.349 53.910 C 64.653 51.255,61.347 47.973,60.003 46.615 C 58.659 45.258,57.489 44.164,57.404 44.184 C 57.319 44.204,57.039 44.133,56.781 44.027 C 56.258 43.811,54.625 43.764,54.431 43.958 M86.250 47.167 C 86.794 47.717,87.277 48.167,87.323 48.167 C 87.369 48.167,86.961 47.717,86.417 47.167 C 85.872 46.617,85.390 46.167,85.344 46.167 C 85.298 46.167,85.706 46.617,86.250 47.167 M74.417 50.000 C 75.698 51.283,76.783 52.333,76.829 52.333 C 76.875 52.333,75.864 51.283,74.583 50.000 C 73.302 48.717,72.217 47.667,72.171 47.667 C 72.125 47.667,73.136 48.717,74.417 50.000 M20.406 50.875 L 19.917 51.417 20.458 50.927 C 20.756 50.658,21.000 50.414,21.000 50.385 C 21.000 50.257,20.862 50.370,20.406 50.875 M91.333 52.083 C 91.831 52.587,92.276 53.000,92.322 53.000 C 92.368 53.000,91.998 52.587,91.500 52.083 C 91.002 51.579,90.557 51.167,90.511 51.167 C 90.466 51.167,90.835 51.579,91.333 52.083 M18.577 52.708 L 17.750 53.583 18.625 52.756 C 19.106 52.301,19.500 51.908,19.500 51.881 C 19.500 51.757,19.346 51.895,18.577 52.708 M68.590 68.743 L 81.500 81.652 81.500 86.326 L 81.500 91.000 55.667 91.000 L 29.833 91.000 29.833 86.307 L 29.833 81.615 41.542 69.875 C 47.981 63.417,53.737 57.622,54.333 56.996 C 54.929 56.369,55.476 55.852,55.548 55.845 C 55.620 55.839,61.489 61.643,68.590 68.743 M96.417 57.000 C 96.868 57.458,97.275 57.833,97.321 57.833 C 97.367 57.833,97.035 57.458,96.583 57.000 C 96.132 56.542,95.725 56.167,95.679 56.167 C 95.633 56.167,95.965 56.542,96.417 57.000 M25.913 59.208 L 24.583 60.583 25.958 59.254 C 26.715 58.523,27.333 57.904,27.333 57.879 C 27.333 57.757,27.147 57.931,25.913 59.208 M97.667 58.219 C 97.667 58.248,97.910 58.491,98.208 58.760 L 98.750 59.250 98.260 58.708 C 97.804 58.203,97.667 58.090,97.667 58.219 M85.333 60.750 C 86.108 61.529,86.780 62.167,86.826 62.167 C 86.872 62.167,86.275 61.529,85.500 60.750 C 84.725 59.971,84.053 59.333,84.007 59.333 C 83.962 59.333,84.558 59.971,85.333 60.750 M87.660 63.042 C 88.068 63.477,88.425 63.833,88.451 63.833 C 88.577 63.833,88.444 63.684,87.708 62.993 L 86.917 62.250 87.660 63.042 " stroke="none" fill="#1c8cd4" fill-rule="evenodd"></path><path id="path3" d="M40.111 44.778 C 39.862 45.027,39.989 45.384,40.250 45.167 C 40.387 45.053,40.500 44.893,40.500 44.813 C 40.500 44.640,40.269 44.619,40.111 44.778 M39.568 45.476 C 39.640 45.592,39.534 45.731,39.302 45.824 C 39.048 45.926,39.009 45.982,39.188 45.989 C 39.571 46.004,39.915 45.570,39.649 45.406 C 39.521 45.327,39.492 45.352,39.568 45.476 M21.556 63.271 C 21.266 63.580,21.082 63.833,21.148 63.833 C 21.214 63.833,21.522 63.571,21.833 63.250 C 22.144 62.929,22.328 62.676,22.241 62.688 C 22.154 62.700,21.846 62.962,21.556 63.271 M280.412 75.083 C 280.412 80.675,280.433 82.938,280.458 80.113 C 280.484 77.288,280.484 72.713,280.458 69.946 C 280.433 67.180,280.412 69.492,280.412 75.083 M19.073 65.708 L 18.583 66.250 19.125 65.760 C 19.423 65.491,19.667 65.248,19.667 65.219 C 19.667 65.090,19.529 65.203,19.073 65.708 M231.872 75.000 C 231.872 75.321,231.906 75.452,231.948 75.292 C 231.990 75.131,231.990 74.869,231.948 74.708 C 231.906 74.548,231.872 74.679,231.872 75.000 M374.240 80.750 C 374.240 83.225,374.263 84.261,374.291 83.052 C 374.320 81.843,374.320 79.818,374.291 78.552 C 374.263 77.286,374.240 78.275,374.240 80.750 " stroke="none" fill="#5cc4fc" fill-rule="evenodd"></path><path id="path4" d="M43.411 28.208 L 42.417 29.250 43.458 28.255 C 44.426 27.331,44.576 27.167,44.453 27.167 C 44.427 27.167,43.959 27.635,43.411 28.208 M40.635 30.792 C 40.127 31.383,40.131 31.569,40.641 31.094 C 40.930 30.825,41.167 30.581,41.167 30.552 C 41.167 30.397,40.852 30.538,40.635 30.792 M38.575 32.859 C 38.187 33.267,38.092 33.425,38.343 33.243 C 38.728 32.965,39.432 32.167,39.292 32.167 C 39.260 32.167,38.938 32.478,38.575 32.859 M48.606 36.930 C 48.159 37.344,47.826 37.715,47.866 37.754 C 47.905 37.794,48.304 37.452,48.754 36.996 C 49.772 35.963,49.687 35.925,48.606 36.930 M46.646 38.848 L 45.917 39.528 46.708 38.911 C 47.432 38.347,47.608 38.167,47.438 38.167 C 47.404 38.167,47.048 38.473,46.646 38.848 M65.621 41.336 C 66.741 42.435,67.716 43.333,67.787 43.333 C 67.858 43.333,66.988 42.433,65.853 41.333 C 64.717 40.233,63.742 39.335,63.686 39.336 C 63.629 39.338,64.500 40.238,65.621 41.336 M30.669 40.659 C 30.441 40.834,30.297 41.020,30.349 41.071 C 30.401 41.123,30.619 40.978,30.834 40.749 C 31.299 40.255,31.238 40.222,30.669 40.659 M27.154 44.110 L 26.750 44.553 27.292 44.162 C 27.855 43.755,27.927 43.667,27.696 43.667 C 27.620 43.667,27.376 43.866,27.154 44.110 M24.414 46.863 C 23.224 48.071,22.550 48.809,22.917 48.504 C 23.597 47.936,26.667 44.849,26.667 44.731 C 26.667 44.589,26.499 44.748,24.414 46.863 M83.942 44.921 C 83.995 45.061,84.199 45.259,84.395 45.361 C 84.722 45.530,84.718 45.510,84.346 45.106 C 83.881 44.601,83.805 44.566,83.942 44.921 M40.073 45.375 L 39.583 45.917 40.125 45.427 C 40.630 44.971,40.743 44.833,40.615 44.833 C 40.586 44.833,40.342 45.077,40.073 45.375 M71.167 46.750 C 71.665 47.254,72.109 47.667,72.155 47.667 C 72.201 47.667,71.831 47.254,71.333 46.750 C 70.835 46.246,70.391 45.833,70.345 45.833 C 70.299 45.833,70.669 46.246,71.167 46.750 M37.083 48.187 C 36.808 48.451,36.658 48.665,36.750 48.664 C 36.939 48.661,37.746 47.853,37.648 47.766 C 37.612 47.734,37.358 47.924,37.083 48.187 M61.333 48.052 C 61.333 48.081,61.577 48.325,61.875 48.594 L 62.417 49.083 61.927 48.542 C 61.471 48.037,61.333 47.923,61.333 48.052 M35.742 49.542 L 35.083 50.250 35.792 49.591 C 36.450 48.978,36.577 48.833,36.450 48.833 C 36.423 48.833,36.105 49.152,35.742 49.542 M88.833 49.605 C 88.833 49.725,89.505 50.333,89.638 50.333 C 89.686 50.333,89.549 50.146,89.333 49.917 C 88.928 49.485,88.833 49.426,88.833 49.605 M44.830 52.120 C 43.624 53.357,43.526 53.485,44.417 52.662 C 45.521 51.641,46.605 50.500,46.471 50.500 C 46.438 50.500,45.699 51.229,44.830 52.120 M33.575 51.708 L 32.917 52.417 33.625 51.758 C 34.284 51.145,34.410 51.000,34.284 51.000 C 34.257 51.000,33.938 51.319,33.575 51.708 M77.167 52.750 C 77.382 52.979,77.586 53.167,77.620 53.167 C 77.759 53.167,77.072 52.343,76.929 52.339 C 76.845 52.336,76.951 52.521,77.167 52.750 M30.655 54.519 C 29.791 55.355,29.458 55.736,29.917 55.366 C 30.778 54.671,32.472 53.000,32.316 53.000 C 32.267 53.000,31.520 53.684,30.655 54.519 M78.702 54.249 C 79.226 54.791,79.679 55.200,79.708 55.159 C 79.738 55.117,79.309 54.674,78.756 54.174 L 77.750 53.264 78.702 54.249 M94.182 54.917 C 95.056 55.825,95.512 56.173,94.901 55.466 C 93.892 54.299,93.597 54.000,93.456 54.000 C 93.369 54.000,93.696 54.413,94.182 54.917 M15.511 55.718 L 15.105 56.250 15.636 55.760 C 16.188 55.251,16.251 55.160,16.042 55.176 C 15.973 55.181,15.734 55.425,15.511 55.718 M69.917 56.500 C 70.646 57.233,71.280 57.833,71.326 57.833 C 71.371 57.833,70.812 57.233,70.083 56.500 C 69.354 55.767,68.720 55.167,68.674 55.167 C 68.629 55.167,69.188 55.767,69.917 56.500 M80.320 55.891 C 80.558 56.188,81.167 56.578,81.167 56.434 C 81.167 56.391,80.923 56.185,80.625 55.976 C 80.241 55.707,80.152 55.682,80.320 55.891 M39.079 57.684 C 38.348 58.428,37.900 58.938,38.083 58.818 C 38.432 58.590,40.612 56.333,40.483 56.333 C 40.442 56.333,39.811 56.941,39.079 57.684 M13.585 57.509 C 13.128 57.949,12.791 58.337,12.835 58.371 C 12.880 58.405,13.326 58.035,13.826 57.550 C 14.327 57.064,14.664 56.676,14.576 56.687 C 14.489 56.698,14.043 57.068,13.585 57.509 M81.333 56.744 C 81.333 56.818,81.521 57.052,81.750 57.265 C 81.979 57.477,82.167 57.592,82.167 57.521 C 82.167 57.450,81.979 57.215,81.750 57.000 C 81.521 56.785,81.333 56.669,81.333 56.744 M11.740 59.344 C 11.453 59.644,11.367 59.810,11.532 59.747 C 11.771 59.655,12.448 58.833,12.285 58.833 C 12.254 58.833,12.009 59.063,11.740 59.344 M35.577 61.042 L 34.750 61.917 35.625 61.090 C 36.438 60.321,36.576 60.167,36.452 60.167 C 36.426 60.167,36.032 60.560,35.577 61.042 M33.158 63.458 L 32.583 64.083 33.208 63.509 C 33.790 62.974,33.910 62.833,33.783 62.833 C 33.755 62.833,33.474 63.115,33.158 63.458 M21.208 63.852 C 20.727 64.318,20.333 64.745,20.333 64.802 C 20.333 64.859,20.746 64.498,21.250 64.000 C 22.090 63.170,22.243 62.996,22.125 63.002 C 22.102 63.003,21.690 63.385,21.208 63.852 M98.667 65.333 C 98.471 65.608,98.348 65.833,98.394 65.833 C 98.440 65.833,98.638 65.608,98.833 65.333 C 99.029 65.058,99.152 64.833,99.106 64.833 C 99.060 64.833,98.862 65.058,98.667 65.333 M18.826 66.105 C 18.418 66.530,18.203 66.811,18.349 66.730 C 18.611 66.586,19.764 65.333,19.635 65.333 C 19.599 65.333,19.235 65.681,18.826 66.105 M30.573 66.042 L 30.083 66.583 30.625 66.094 C 30.923 65.825,31.167 65.581,31.167 65.552 C 31.167 65.423,31.029 65.537,30.573 66.042 M91.333 66.454 C 91.333 66.663,91.810 67.079,91.922 66.967 C 91.966 66.923,91.852 66.751,91.668 66.584 C 91.484 66.418,91.333 66.359,91.333 66.454 M85.667 72.052 C 85.667 72.081,85.910 72.325,86.208 72.594 L 86.750 73.083 86.260 72.542 C 85.804 72.037,85.667 71.923,85.667 72.052 M90.868 77.584 C 90.933 77.685,91.060 77.951,91.149 78.176 C 91.252 78.433,91.316 78.483,91.323 78.310 C 91.329 78.160,91.202 77.894,91.042 77.719 C 90.881 77.544,90.803 77.484,90.868 77.584 " stroke="none" fill="#38c8e8" fill-rule="evenodd"></path></g></svg>