<svg id="svg" version="1.1" xmlns="http://www.w3.org/2000/svg" xmlns:xlink="http://www.w3.org/1999/xlink" width="400" height="399.33444259567386" viewBox="0, 0, 400,399.33444259567386"><g id="svgg"><path id="path0" d="M186.350 31.790 C 186.228 32.108,185.878 32.368,185.572 32.368 C 185.265 32.368,185.015 32.526,185.015 32.721 C 185.015 32.915,184.700 33.182,184.316 33.314 C 183.106 33.729,180.459 35.446,180.302 35.917 C 180.219 36.165,179.999 36.275,179.813 36.160 C 179.627 36.045,179.222 36.312,178.913 36.754 C 178.603 37.196,178.257 37.464,178.143 37.350 C 178.029 37.237,177.705 37.422,177.423 37.762 C 176.985 38.290,177.018 38.338,177.653 38.095 C 178.314 37.841,178.331 37.880,177.809 38.443 C 177.487 38.792,177.077 38.988,176.898 38.880 C 176.452 38.609,175.025 39.954,175.025 40.645 C 175.025 40.954,174.860 41.104,174.658 40.979 C 174.127 40.651,172.105 42.900,172.539 43.335 C 172.684 43.480,172.494 43.480,172.116 43.335 C 171.596 43.136,171.429 43.283,171.429 43.937 C 171.429 44.413,171.275 44.707,171.087 44.591 C 170.622 44.304,168.947 46.136,169.327 46.516 C 169.494 46.683,169.451 46.761,169.231 46.690 C 168.432 46.430,167.005 47.810,167.262 48.595 C 167.455 49.188,167.420 49.227,167.101 48.777 C 166.612 48.087,162.877 51.754,163.203 52.604 C 163.322 52.913,163.174 53.021,162.821 52.885 C 162.158 52.631,158.114 56.613,158.462 57.176 C 158.584 57.373,158.439 57.440,158.140 57.325 C 157.596 57.116,155.166 59.478,155.348 60.040 C 155.401 60.205,155.257 60.340,155.028 60.340 C 154.799 60.340,154.215 60.726,153.730 61.198 C 153.244 61.670,153.100 61.911,153.408 61.735 C 153.785 61.521,153.876 61.567,153.685 61.876 C 153.528 62.130,153.162 62.338,152.872 62.338 C 152.583 62.338,152.099 62.652,151.797 63.037 C 151.300 63.671,151.314 63.685,151.948 63.188 C 152.335 62.884,152.647 62.822,152.647 63.049 C 152.647 63.274,152.108 63.646,151.449 63.876 C 150.522 64.199,150.239 64.548,150.203 65.414 C 150.175 66.099,150.086 66.260,149.973 65.829 C 149.872 65.442,149.621 65.230,149.414 65.357 C 149.207 65.485,149.144 65.762,149.274 65.972 C 149.404 66.182,149.296 66.304,149.034 66.244 C 148.772 66.183,148.502 66.465,148.435 66.870 C 148.288 67.746,147.852 68.274,147.852 67.575 C 147.852 67.306,147.669 67.199,147.446 67.337 C 147.223 67.475,147.146 67.760,147.276 67.970 C 147.406 68.180,147.274 68.302,146.983 68.242 C 146.692 68.181,146.499 68.357,146.553 68.631 C 146.608 68.906,146.493 69.086,146.297 69.031 C 145.866 68.910,140.821 73.955,140.951 74.378 C 141.001 74.542,140.687 74.790,140.252 74.928 C 139.817 75.066,139.461 75.357,139.461 75.575 C 139.461 75.793,139.286 75.863,139.073 75.732 C 138.859 75.600,138.570 75.947,138.431 76.504 C 138.288 77.071,137.991 77.403,137.757 77.257 C 137.489 77.092,137.421 77.319,137.568 77.882 C 137.747 78.566,137.684 78.671,137.292 78.346 C 136.920 78.037,136.582 78.162,136.025 78.816 C 135.383 79.568,135.375 79.621,135.974 79.157 C 136.364 78.855,136.798 78.723,136.939 78.864 C 137.081 79.005,136.976 79.121,136.706 79.121 C 136.437 79.121,136.330 79.305,136.470 79.530 C 136.609 79.756,136.575 79.914,136.393 79.883 C 135.155 79.667,134.201 79.974,134.410 80.519 C 134.537 80.849,134.421 81.121,134.153 81.124 C 133.561 81.131,128.833 85.592,128.972 86.014 C 129.027 86.179,128.874 86.314,128.634 86.314 C 128.003 86.314,124.675 89.572,124.675 90.189 C 124.675 90.475,124.470 90.709,124.219 90.709 C 123.771 90.709,121.479 92.891,121.479 93.317 C 121.479 93.436,120.939 94.061,120.280 94.705 C 119.620 95.350,119.081 95.754,119.081 95.605 C 119.081 95.455,118.100 96.301,116.902 97.484 C 115.703 98.668,114.817 99.790,114.933 99.978 C 115.049 100.166,114.906 100.270,114.615 100.210 C 114.322 100.149,114.145 100.367,114.219 100.699 C 114.292 101.029,114.217 101.163,114.052 100.998 C 113.575 100.521,112.314 101.901,112.584 102.604 C 112.751 103.041,112.650 103.168,112.255 103.017 C 111.643 102.782,110.576 103.649,110.980 104.053 C 111.113 104.187,110.956 104.296,110.631 104.296 C 109.841 104.296,107.799 106.459,108.186 106.885 C 108.354 107.070,108.300 107.112,108.066 106.980 C 107.832 106.847,106.421 107.987,104.930 109.513 C 103.438 111.039,102.132 112.288,102.027 112.288 C 101.596 112.288,99.556 114.607,99.785 114.836 C 99.921 114.973,99.851 115.085,99.628 115.085 C 99.016 115.085,97.480 116.527,97.776 116.824 C 97.919 116.966,97.853 117.083,97.630 117.083 C 97.018 117.083,95.482 118.525,95.778 118.822 C 95.921 118.964,95.795 119.081,95.500 119.081 C 94.912 119.081,92.308 121.750,92.308 122.352 C 92.308 122.557,92.128 122.613,91.908 122.478 C 91.688 122.342,91.508 122.620,91.508 123.096 C 91.508 123.665,91.321 123.890,90.961 123.752 C 90.638 123.627,89.944 124.177,89.263 125.098 C 88.630 125.954,87.877 126.659,87.589 126.664 C 87.301 126.669,87.160 126.826,87.275 127.013 C 87.391 127.199,87.042 127.589,86.500 127.879 C 85.958 128.169,85.514 128.730,85.514 129.126 C 85.514 129.601,85.311 129.767,84.915 129.615 C 84.548 129.474,84.316 129.615,84.316 129.981 C 84.316 130.308,83.938 130.675,83.476 130.796 C 83.014 130.916,82.755 131.207,82.900 131.442 C 83.045 131.676,82.998 131.868,82.795 131.868 C 81.819 131.868,80.294 133.553,80.761 134.116 C 81.142 134.575,81.105 134.635,80.565 134.428 C 79.774 134.124,77.763 136.083,78.177 136.753 C 78.343 137.021,78.258 137.071,77.954 136.883 C 77.411 136.547,75.524 138.099,75.524 138.882 C 75.524 139.146,75.220 139.609,74.848 139.911 C 74.265 140.384,74.220 140.377,74.520 139.860 C 74.711 139.530,74.127 139.970,73.222 140.837 C 72.317 141.703,71.667 142.558,71.777 142.736 C 71.886 142.913,71.516 143.233,70.953 143.447 C 70.346 143.678,69.930 144.148,69.930 144.603 C 69.930 145.024,69.635 145.482,69.274 145.621 C 68.701 145.841,68.689 145.787,69.174 145.193 C 69.660 144.600,69.651 144.561,69.102 144.884 C 68.012 145.527,65.536 148.519,65.841 148.825 C 66.002 148.986,65.864 149.058,65.534 148.984 C 65.203 148.911,64.984 149.087,65.045 149.380 C 65.105 149.671,64.962 149.790,64.726 149.645 C 64.189 149.313,60.679 153.026,61.015 153.570 C 61.151 153.790,61.067 153.849,60.829 153.702 C 60.216 153.323,53.147 160.444,53.147 161.439 C 53.147 161.878,52.973 162.238,52.760 162.238 C 52.547 162.238,52.491 161.929,52.636 161.552 C 52.858 160.973,52.769 160.989,52.063 161.652 C 49.886 163.697,49.063 164.651,49.582 164.528 C 49.894 164.454,49.740 164.574,49.239 164.795 C 48.738 165.017,48.417 165.428,48.525 165.709 C 48.633 165.991,48.347 166.422,47.889 166.667 C 47.220 167.025,47.115 167.007,47.353 166.573 C 47.516 166.277,47.109 166.573,46.448 167.233 C 45.787 167.892,45.270 168.603,45.300 168.813 C 45.330 169.023,45.162 169.203,44.927 169.213 C 44.352 169.237,43.157 170.460,43.157 171.024 C 43.157 171.272,43.003 171.381,42.815 171.265 C 42.627 171.149,42.075 171.478,41.587 171.997 C 40.920 172.708,40.831 172.998,41.230 173.172 C 41.565 173.319,41.514 173.371,41.089 173.315 C 40.257 173.205,33.080 180.156,33.434 180.729 C 33.575 180.956,33.503 181.027,33.274 180.885 C 32.756 180.565,31.866 181.572,32.271 182.019 C 32.434 182.199,32.363 182.229,32.113 182.086 C 31.598 181.792,30.635 182.750,31.039 183.154 C 31.184 183.298,30.918 183.417,30.449 183.417 C 29.929 183.417,29.363 183.846,29.000 184.515 C 28.672 185.120,28.396 185.456,28.388 185.263 C 28.379 185.070,27.663 185.599,26.797 186.439 C 25.932 187.280,25.313 188.112,25.422 188.289 C 25.532 188.466,25.433 188.611,25.203 188.611 C 23.820 188.611,14.350 198.972,14.364 200.468 C 14.372 201.310,14.322 203.399,14.252 205.111 C 14.141 207.813,14.207 208.193,14.754 207.985 C 15.259 207.792,15.285 207.845,14.885 208.248 C 14.065 209.074,14.302 210.410,15.371 210.982 C 15.913 211.272,16.255 211.673,16.132 211.872 C 16.008 212.072,15.661 211.910,15.359 211.512 C 14.573 210.475,14.661 210.977,15.584 212.787 C 16.024 213.649,16.384 214.633,16.384 214.973 C 16.384 215.314,16.728 215.807,17.150 216.071 C 17.651 216.384,17.843 216.830,17.704 217.361 C 17.560 217.910,17.729 218.263,18.228 218.454 C 18.632 218.610,19.359 219.164,19.842 219.685 C 20.326 220.207,20.824 220.621,20.950 220.606 C 21.716 220.516,21.979 220.636,21.982 221.079 C 22.001 223.263,28.214 226.187,29.947 224.828 C 30.387 224.483,30.453 224.492,30.228 224.867 C 30.001 225.245,30.998 225.355,34.547 225.344 C 37.354 225.335,39.161 225.173,39.161 224.929 C 39.161 224.709,38.936 224.663,38.661 224.828 C 38.322 225.032,38.338 224.912,38.710 224.452 C 39.355 223.657,39.599 223.592,39.461 224.252 C 39.406 224.514,39.697 224.801,40.107 224.890 C 40.570 224.990,40.752 224.887,40.586 224.618 C 40.421 224.352,40.549 224.274,40.918 224.415 C 41.247 224.542,42.021 224.382,42.637 224.060 C 44.094 223.298,45.550 222.684,46.578 222.400 C 47.667 222.098,52.862 216.693,52.550 216.187 C 52.410 215.962,52.572 215.895,52.926 216.031 C 53.267 216.162,53.546 216.070,53.546 215.827 C 53.546 215.584,53.816 215.385,54.146 215.385 C 54.686 215.385,54.923 214.910,54.793 214.086 C 54.767 213.921,54.970 213.831,55.245 213.886 C 55.519 213.941,55.699 213.761,55.644 213.487 C 55.589 213.212,55.700 213.032,55.890 213.087 C 56.080 213.142,57.254 212.243,58.500 211.089 C 59.745 209.935,60.661 208.991,60.536 208.991 C 60.411 208.991,60.540 208.740,60.823 208.434 C 61.107 208.127,61.453 207.945,61.593 208.030 C 61.733 208.114,62.073 207.911,62.349 207.579 C 62.772 207.069,62.732 207.013,62.094 207.216 C 61.355 207.453,61.355 207.444,62.097 206.839 C 62.514 206.498,63.036 206.331,63.257 206.468 C 63.491 206.613,63.536 206.516,63.364 206.238 C 62.964 205.592,63.848 204.595,64.822 204.595 C 65.273 204.595,65.698 204.254,65.818 203.796 C 65.933 203.357,66.276 202.997,66.580 202.997 C 66.884 202.997,67.133 202.727,67.133 202.398 C 67.133 202.068,66.923 201.798,66.667 201.798 C 66.410 201.798,66.316 201.683,66.457 201.541 C 66.598 201.400,66.968 201.495,67.278 201.753 C 67.728 202.126,68.043 201.981,68.841 201.033 C 69.391 200.379,69.951 199.954,70.085 200.089 C 70.220 200.223,70.330 200.130,70.330 199.882 C 70.330 199.635,70.705 199.083,71.163 198.656 C 71.962 197.911,71.966 197.861,71.263 197.417 C 70.620 197.012,70.665 196.975,71.628 197.123 C 72.233 197.216,72.727 197.149,72.727 196.975 C 72.727 196.800,73.096 196.540,73.548 196.397 C 74.209 196.187,74.275 196.025,73.891 195.562 C 73.498 195.089,73.542 195.036,74.135 195.264 C 74.670 195.469,74.772 195.404,74.529 195.011 C 74.324 194.680,74.358 194.578,74.618 194.739 C 74.847 194.880,75.242 194.746,75.496 194.440 C 75.848 194.015,75.836 193.835,75.441 193.677 C 75.153 193.561,75.287 193.456,75.743 193.438 C 76.822 193.397,79.802 190.384,79.058 190.087 C 78.732 189.957,78.840 189.861,79.330 189.842 C 80.307 189.804,86.518 183.671,86.163 183.096 C 86.010 182.849,86.248 182.780,86.775 182.917 C 87.366 183.072,87.547 182.997,87.352 182.680 C 87.194 182.426,87.230 182.218,87.431 182.218 C 88.059 182.218,93.314 176.973,93.173 176.486 C 93.100 176.232,93.174 176.157,93.337 176.320 C 93.752 176.735,94.753 175.825,94.439 175.318 C 94.298 175.089,94.355 175.008,94.566 175.139 C 95.074 175.452,100.395 170.068,100.004 169.637 C 99.837 169.453,99.900 169.416,100.144 169.555 C 100.662 169.851,103.696 166.702,103.698 165.867 C 103.699 165.555,103.969 165.227,104.297 165.137 C 104.826 164.993,104.826 165.023,104.296 165.398 C 103.925 165.660,103.878 165.824,104.173 165.828 C 104.435 165.831,104.930 165.435,105.272 164.946 C 105.614 164.458,105.894 164.195,105.894 164.361 C 105.894 164.528,106.658 163.772,107.592 162.682 C 108.526 161.591,109.496 160.685,109.747 160.669 C 110.307 160.633,110.776 159.541,110.307 159.366 C 110.121 159.297,110.255 158.977,110.605 158.654 C 111.169 158.134,111.211 158.146,110.978 158.754 C 110.561 159.839,110.844 159.628,114.212 156.344 C 115.958 154.640,118.861 151.858,120.662 150.161 C 122.463 148.464,123.835 146.911,123.711 146.710 C 123.587 146.509,123.798 146.369,124.180 146.399 C 124.562 146.429,124.830 146.229,124.775 145.954 C 124.720 145.679,124.945 145.455,125.275 145.455 C 125.673 145.455,125.892 145.020,125.929 144.156 C 125.968 143.206,126.030 143.101,126.157 143.762 C 126.253 144.260,126.501 144.562,126.708 144.434 C 126.916 144.306,126.983 144.033,126.856 143.829 C 126.730 143.624,126.832 143.457,127.084 143.457 C 127.336 143.457,128.561 142.443,129.805 141.204 C 131.050 139.965,131.843 139.077,131.568 139.230 C 131.294 139.383,131.069 139.317,131.069 139.085 C 131.069 138.852,131.439 138.661,131.892 138.661 C 132.344 138.661,132.603 138.482,132.468 138.262 C 132.332 138.042,132.518 137.862,132.881 137.862 C 133.244 137.862,133.638 137.492,133.756 137.040 C 133.893 136.518,134.187 136.301,134.563 136.445 C 134.963 136.599,135.082 136.484,134.930 136.089 C 134.770 135.673,134.901 135.575,135.385 135.748 C 135.758 135.882,135.930 135.844,135.767 135.664 C 135.603 135.484,135.831 135.083,136.273 134.774 C 136.715 134.464,136.970 134.039,136.840 133.829 C 136.710 133.619,136.774 133.496,136.982 133.557 C 137.190 133.617,138.554 132.471,140.013 131.010 C 141.472 129.549,142.953 128.244,143.303 128.110 C 143.677 127.966,143.841 127.611,143.702 127.249 C 143.572 126.909,143.621 126.728,143.810 126.845 C 144.356 127.182,146.337 125.139,146.012 124.574 C 145.855 124.300,145.876 124.212,146.059 124.378 C 146.430 124.715,147.335 123.908,154.892 116.494 C 157.798 113.643,160.073 111.142,159.947 110.938 C 159.820 110.733,159.897 110.677,160.118 110.814 C 160.338 110.950,160.877 110.663,161.316 110.176 C 161.754 109.689,163.561 107.894,165.333 106.187 C 167.956 103.659,168.510 102.918,168.323 102.191 C 168.118 101.397,168.167 101.359,168.762 101.847 C 169.504 102.456,170.317 102.030,171.060 100.641 C 171.366 100.069,171.320 99.967,170.841 100.151 C 170.507 100.279,170.351 100.572,170.494 100.803 C 170.649 101.054,170.560 101.103,170.272 100.925 C 169.538 100.472,170.594 99.398,171.532 99.643 C 172.081 99.787,172.228 99.678,172.064 99.251 C 171.931 98.903,172.008 98.765,172.252 98.916 C 172.731 99.212,179.531 92.552,179.145 92.165 C 179.003 92.024,179.192 91.908,179.564 91.908 C 179.935 91.908,180.410 91.459,180.619 90.909 C 180.828 90.360,181.104 89.910,181.232 89.910 C 181.361 89.910,181.331 90.135,181.166 90.410 C 180.959 90.753,181.075 90.739,181.537 90.364 C 181.907 90.065,182.108 89.656,181.984 89.455 C 181.860 89.255,181.997 89.140,182.288 89.201 C 182.579 89.261,182.843 88.951,182.875 88.511 C 182.979 87.064,183.012 87.011,183.550 87.458 C 184.171 87.973,189.608 82.698,189.100 82.074 C 188.941 81.878,188.974 81.852,189.174 82.015 C 189.625 82.383,190.682 81.559,190.382 81.074 C 190.261 80.879,190.415 80.719,190.724 80.719 C 191.032 80.719,191.610 80.360,192.008 79.920 C 192.406 79.481,192.569 79.118,192.370 79.115 C 192.171 79.112,192.382 78.887,192.839 78.615 C 194.789 77.458,196.084 76.505,196.045 76.257 C 196.023 76.111,196.139 75.856,196.304 75.691 C 196.469 75.526,196.603 75.584,196.603 75.820 C 196.603 76.056,196.963 76.155,197.403 76.040 C 197.842 75.925,198.202 75.689,198.202 75.516 C 198.202 75.344,199.191 75.281,200.400 75.378 C 201.674 75.480,202.597 75.391,202.597 75.166 C 202.597 74.953,202.148 74.860,201.598 74.959 C 201.049 75.059,200.599 74.987,200.599 74.800 C 200.599 74.612,201.204 74.459,201.943 74.459 C 203.049 74.459,203.253 74.588,203.095 75.191 C 202.990 75.594,203.079 75.924,203.294 75.924 C 203.509 75.924,204.379 76.395,205.228 76.972 C 206.077 77.548,206.996 78.052,207.270 78.092 C 207.545 78.132,207.909 78.319,208.080 78.507 C 208.252 78.695,208.167 78.720,207.892 78.562 C 207.091 78.101,207.312 78.637,208.448 79.912 C 209.028 80.564,209.655 81.002,209.842 80.887 C 210.028 80.772,210.062 80.986,209.918 81.363 C 209.739 81.829,209.805 81.956,210.122 81.760 C 210.405 81.585,210.589 81.726,210.589 82.118 C 210.589 82.505,210.775 82.650,211.051 82.479 C 211.335 82.303,211.404 82.370,211.229 82.652 C 210.839 83.283,212.225 85.087,213.110 85.102 C 213.508 85.109,213.735 85.274,213.614 85.469 C 213.494 85.664,213.663 86.046,213.990 86.317 C 214.318 86.589,214.585 86.692,214.585 86.547 C 214.585 86.401,214.836 86.514,215.143 86.797 C 215.449 87.081,215.631 87.427,215.547 87.567 C 215.462 87.707,215.696 88.067,216.065 88.366 C 216.643 88.835,216.689 88.827,216.399 88.312 C 216.213 87.982,216.425 88.072,216.871 88.511 C 217.316 88.951,217.619 89.418,217.545 89.550 C 217.471 89.682,217.808 90.147,218.295 90.584 C 218.782 91.021,219.591 91.865,220.092 92.459 C 220.624 93.091,221.205 93.423,221.490 93.259 C 221.758 93.105,221.845 93.126,221.682 93.306 C 221.305 93.721,222.148 94.771,222.623 94.478 C 222.818 94.357,222.977 94.517,222.977 94.833 C 222.977 95.767,223.949 96.370,224.529 95.795 C 224.920 95.407,224.966 95.453,224.751 96.018 C 224.414 96.904,230.728 103.472,231.968 103.525 C 232.408 103.544,232.540 103.651,232.262 103.763 C 231.943 103.891,232.674 104.905,234.237 106.505 C 235.602 107.900,236.843 108.965,236.995 108.871 C 237.147 108.777,237.517 109.002,237.817 109.372 C 238.286 109.950,238.278 109.994,237.762 109.692 C 237.433 109.499,239.231 111.441,241.758 114.008 C 245.451 117.758,246.574 118.675,247.476 118.678 C 248.134 118.680,248.495 118.849,248.348 119.087 C 248.210 119.311,247.884 119.386,247.625 119.255 C 247.365 119.124,247.636 119.462,248.226 120.007 C 248.817 120.551,249.191 121.105,249.059 121.238 C 248.926 121.370,249.039 121.479,249.310 121.479 C 249.580 121.479,250.260 122.023,250.820 122.689 C 251.634 123.656,251.952 123.805,252.402 123.431 C 252.713 123.174,253.097 123.103,253.256 123.274 C 253.416 123.446,253.312 123.669,253.026 123.771 C 252.638 123.909,252.690 124.108,253.226 124.546 C 253.622 124.869,253.721 125.020,253.447 124.881 C 252.731 124.519,252.831 124.883,253.623 125.525 C 254.008 125.838,254.177 125.871,254.016 125.602 C 253.861 125.342,253.916 125.017,254.139 124.879 C 254.363 124.741,254.545 124.934,254.545 125.307 C 254.545 125.680,254.860 126.244,255.245 126.559 C 255.629 126.874,255.691 127.001,255.383 126.841 C 255.005 126.645,254.918 126.707,255.119 127.031 C 255.348 127.401,255.561 127.392,256.049 126.992 C 256.599 126.542,256.652 126.590,256.454 127.358 C 256.312 127.910,256.465 128.435,256.861 128.757 C 257.394 129.188,257.446 129.174,257.187 128.671 C 257.018 128.342,257.348 128.583,257.923 129.208 C 258.497 129.833,259.266 130.388,259.632 130.442 C 259.997 130.495,260.365 130.793,260.448 131.104 C 260.540 131.446,260.470 131.511,260.270 131.269 C 259.948 130.878,258.941 130.531,258.941 130.810 C 258.941 131.248,261.422 133.449,261.823 133.366 C 262.086 133.311,262.310 133.481,262.319 133.743 C 262.329 134.005,262.922 134.790,263.636 135.488 C 264.351 136.187,264.935 136.917,264.935 137.110 C 264.935 137.304,265.110 137.463,265.323 137.463 C 265.536 137.463,266.586 138.361,267.656 139.459 C 268.725 140.557,269.719 141.336,269.865 141.191 C 270.011 141.045,270.135 141.180,270.141 141.492 C 270.156 142.234,272.527 144.571,272.527 143.843 C 272.527 143.409,272.629 143.398,273.022 143.792 C 273.295 144.064,273.519 144.594,273.522 144.970 C 273.524 145.347,273.796 145.659,274.126 145.665 C 274.999 145.680,275.774 146.250,275.507 146.681 C 275.381 146.886,275.727 147.053,276.277 147.053 C 276.826 147.053,277.404 147.261,277.561 147.514 C 277.737 147.800,277.670 147.867,277.384 147.691 C 277.126 147.531,276.920 147.635,276.917 147.928 C 276.912 148.314,276.813 148.298,276.539 147.864 C 276.335 147.540,276.069 147.374,275.949 147.494 C 275.828 147.615,276.207 148.127,276.789 148.634 C 277.499 149.251,277.768 149.347,277.605 148.923 C 277.441 148.494,277.540 148.360,277.917 148.505 C 278.222 148.622,278.371 148.978,278.249 149.295 C 278.016 149.903,282.895 154.917,285.115 156.353 C 285.774 156.779,285.990 157.021,285.594 156.890 C 285.170 156.750,284.974 156.815,285.118 157.048 C 285.252 157.265,285.602 157.443,285.895 157.443 C 286.188 157.443,286.547 157.752,286.692 158.131 C 286.897 158.664,287.028 158.702,287.279 158.297 C 287.533 157.885,287.652 157.909,287.844 158.408 C 287.978 158.756,287.888 159.041,287.646 159.041 C 287.403 159.041,287.662 159.401,288.221 159.840 C 288.780 160.280,289.433 160.639,289.673 160.639 C 289.913 160.639,290.081 160.774,290.046 160.939 C 289.894 161.659,290.660 162.637,291.375 162.637 C 291.804 162.637,292.061 162.790,291.945 162.976 C 291.830 163.163,292.133 163.742,292.618 164.263 C 293.385 165.085,293.518 165.119,293.633 164.523 C 293.705 164.145,293.938 163.836,294.149 163.836 C 294.389 163.836,294.383 164.117,294.133 164.585 C 293.714 165.367,294.865 166.940,295.437 166.368 C 295.584 166.221,295.706 166.355,295.707 166.667 C 295.712 167.580,299.087 170.683,299.561 170.210 C 299.835 169.935,299.956 170.099,299.933 170.716 C 299.913 171.274,300.106 171.586,300.429 171.519 C 300.720 171.458,300.862 171.565,300.745 171.755 C 300.534 172.095,303.172 174.920,303.519 174.725 C 303.616 174.670,303.651 174.709,303.596 174.811 C 303.388 175.199,307.847 179.372,308.222 179.141 C 308.438 179.007,308.499 179.085,308.358 179.314 C 308.216 179.542,308.403 179.975,308.772 180.274 C 309.242 180.655,309.353 180.668,309.142 180.317 C 308.900 179.913,309.057 179.913,309.941 180.316 C 310.832 180.722,310.904 180.844,310.317 180.957 C 309.564 181.102,313.597 185.415,314.486 185.415 C 314.705 185.415,314.885 185.605,314.885 185.838 C 314.885 186.071,315.093 186.133,315.346 185.976 C 315.647 185.790,315.699 185.867,315.495 186.197 C 315.194 186.683,329.470 201.066,329.863 200.673 C 329.953 200.583,330.367 201.068,330.782 201.752 C 331.198 202.435,331.657 202.875,331.803 202.729 C 331.949 202.583,332.068 202.678,332.068 202.939 C 332.068 203.559,336.067 207.373,336.610 207.271 C 336.838 207.228,337.034 207.552,337.044 207.992 C 337.056 208.512,337.297 208.753,337.732 208.681 C 338.100 208.620,338.533 208.783,338.693 209.042 C 338.876 209.338,338.813 209.408,338.523 209.229 C 337.422 208.548,338.289 209.722,339.970 211.189 C 340.978 212.068,341.653 212.535,341.469 212.226 C 341.243 211.846,341.284 211.757,341.597 211.950 C 341.850 212.107,342.058 212.468,342.058 212.752 C 342.058 213.037,343.083 214.150,344.336 215.226 C 345.589 216.302,346.880 217.488,347.205 217.862 C 347.529 218.235,347.943 218.449,348.123 218.338 C 348.304 218.226,348.452 218.392,348.452 218.706 C 348.452 219.045,348.815 219.257,349.351 219.229 C 349.875 219.201,350.208 219.389,350.150 219.680 C 350.095 219.955,350.365 220.183,350.749 220.186 C 351.289 220.191,351.326 220.270,350.911 220.533 C 350.215 220.974,354.072 224.050,356.291 224.823 C 359.788 226.040,370.797 225.310,370.255 223.897 C 370.147 223.616,370.277 223.429,370.544 223.481 C 370.811 223.534,370.984 223.352,370.929 223.077 C 370.874 222.802,370.996 222.622,371.201 222.677 C 371.405 222.732,372.169 222.236,372.899 221.575 C 373.629 220.914,374.945 219.883,375.824 219.285 C 379.180 217.000,382.767 212.477,382.264 211.164 C 382.134 210.825,382.184 210.645,382.376 210.763 C 383.148 211.240,383.568 208.491,383.578 202.897 L 383.588 197.003 382.503 196.949 C 381.628 196.905,381.583 196.862,382.274 196.727 C 382.895 196.605,383.074 196.345,382.927 195.782 C 382.708 194.943,382.018 194.707,382.018 195.471 C 382.018 196.099,381.484 195.534,381.375 194.792 C 381.324 194.442,381.474 194.316,381.742 194.482 C 381.992 194.636,381.797 194.143,381.310 193.385 C 380.822 192.628,380.249 192.051,380.036 192.103 C 379.823 192.155,379.763 191.901,379.902 191.538 C 380.086 191.060,380.010 190.968,379.627 191.205 C 379.262 191.431,379.192 191.378,379.403 191.037 C 379.802 190.392,376.212 186.850,375.565 187.250 C 375.284 187.423,375.209 187.362,375.375 187.093 C 375.640 186.665,374.528 185.015,373.975 185.015 C 373.824 185.015,373.779 185.420,373.875 185.914 C 374.048 186.811,374.047 186.811,373.641 185.888 C 373.417 185.380,373.068 185.066,372.866 185.191 C 372.663 185.316,372.547 185.103,372.608 184.717 C 372.754 183.790,371.344 181.818,370.536 181.818 C 370.184 181.818,370.016 181.699,370.162 181.553 C 370.502 181.213,367.588 178.601,367.162 178.865 C 366.986 178.974,366.959 178.738,367.101 178.342 C 367.244 177.946,367.229 177.740,367.069 177.883 C 366.909 178.027,366.060 177.365,365.182 176.412 C 364.107 175.246,363.330 174.730,362.801 174.832 C 362.368 174.916,362.123 174.811,362.255 174.598 C 362.386 174.386,362.705 174.335,362.965 174.483 C 363.224 174.632,363.006 174.281,362.479 173.703 C 361.953 173.125,361.324 172.765,361.081 172.904 C 360.838 173.042,360.778 173.002,360.948 172.816 C 361.314 172.413,358.107 169.031,357.359 169.031 C 357.075 169.031,356.843 168.767,356.843 168.444 C 356.843 168.061,356.612 167.946,356.178 168.112 C 355.787 168.262,355.614 168.205,355.757 167.973 C 356.190 167.273,351.471 162.975,350.896 163.545 C 350.505 163.934,350.456 163.896,350.659 163.361 C 350.800 162.990,350.727 162.360,350.495 161.962 C 350.199 161.454,350.071 161.408,350.062 161.808 C 350.046 162.543,348.165 160.827,347.830 159.771 C 347.701 159.363,347.428 159.132,347.224 159.259 C 347.020 159.385,346.853 159.294,346.853 159.057 C 346.853 158.504,344.124 155.844,343.555 155.844 C 343.318 155.844,343.233 155.735,343.366 155.602 C 343.786 155.182,342.154 153.740,341.627 154.065 C 341.307 154.263,341.237 154.204,341.427 153.897 C 341.601 153.616,341.179 152.925,340.390 152.195 C 339.659 151.520,338.170 150.131,337.082 149.110 C 335.994 148.088,334.960 147.298,334.784 147.353 C 334.609 147.408,334.510 147.228,334.565 146.953 C 334.620 146.678,334.441 146.499,334.166 146.553 C 333.891 146.608,333.711 146.495,333.766 146.302 C 333.889 145.873,331.187 143.218,330.769 143.357 C 330.604 143.412,330.470 143.311,330.470 143.132 C 330.470 142.364,328.836 141.097,328.169 141.347 C 327.573 141.571,327.547 141.516,327.993 140.968 C 328.435 140.424,328.392 140.288,327.714 140.073 C 327.274 139.933,326.803 139.469,326.667 139.040 C 326.531 138.612,326.249 138.262,326.041 138.262 C 325.833 138.262,325.171 137.723,324.570 137.064 C 323.968 136.405,323.077 135.810,322.588 135.742 C 322.099 135.674,321.580 135.499,321.435 135.354 C 321.289 135.209,321.593 135.171,322.110 135.271 C 322.822 135.408,322.359 134.780,320.189 132.665 C 318.118 130.647,317.129 129.942,316.607 130.111 C 316.089 130.279,316.031 130.239,316.403 129.972 C 316.822 129.671,316.811 129.508,316.341 129.119 C 316.023 128.854,315.684 128.780,315.589 128.954 C 315.494 129.128,315.461 129.070,315.517 128.825 C 315.656 128.211,311.307 123.818,310.844 124.104 C 310.638 124.231,310.519 124.097,310.580 123.806 C 310.640 123.515,310.451 123.326,310.160 123.387 C 309.869 123.447,309.726 123.342,309.842 123.154 C 310.246 122.502,306.223 118.946,305.425 119.250 C 304.875 119.460,304.808 119.414,305.153 119.066 C 305.498 118.718,305.015 118.023,303.193 116.245 C 300.643 113.758,300.266 113.500,300.652 114.506 C 300.797 114.884,300.725 115.024,300.468 114.865 C 300.235 114.722,300.146 114.343,300.269 114.023 C 300.571 113.235,298.436 111.381,297.966 112.024 C 297.750 112.319,297.707 112.238,297.847 111.801 C 298.061 111.134,297.513 110.508,296.703 110.496 C 296.484 110.492,296.296 110.220,296.286 109.890 C 296.276 109.560,296.037 109.340,295.756 109.401 C 295.475 109.461,295.350 109.341,295.479 109.133 C 295.799 108.614,292.838 106.235,292.184 106.486 C 291.804 106.631,291.731 106.452,291.924 105.844 C 292.117 105.236,292.041 105.051,291.653 105.180 C 291.357 105.278,290.929 104.985,290.701 104.528 C 290.473 104.070,290.022 103.696,289.698 103.696 C 289.375 103.696,289.111 103.462,289.111 103.177 C 289.111 102.495,285.740 99.038,285.326 99.294 C 285.150 99.403,284.908 99.116,284.788 98.657 C 284.664 98.184,284.380 97.939,284.133 98.091 C 283.893 98.240,283.746 98.187,283.806 97.975 C 283.964 97.420,282.090 95.874,281.615 96.168 C 281.395 96.304,281.298 96.167,281.398 95.865 C 281.573 95.340,278.278 91.908,277.600 91.908 C 277.421 91.908,277.387 91.728,277.522 91.508 C 277.658 91.289,277.399 91.109,276.947 91.109 C 276.494 91.109,276.169 90.941,276.224 90.736 C 276.384 90.136,267.722 81.877,267.243 82.173 C 267.005 82.321,266.923 82.258,267.062 82.033 C 267.390 81.503,265.982 80.226,265.502 80.619 C 265.300 80.784,265.266 80.758,265.425 80.562 C 265.782 80.123,260.159 74.267,259.671 74.569 C 259.478 74.687,259.370 74.580,259.431 74.330 C 259.491 74.079,258.372 72.852,256.944 71.603 C 255.516 70.353,254.527 69.609,254.746 69.949 C 254.965 70.289,254.846 70.244,254.481 69.849 C 254.117 69.454,253.633 69.131,253.406 69.131 C 253.180 69.131,252.884 68.953,252.750 68.736 C 252.605 68.501,252.797 68.445,253.226 68.597 C 253.865 68.825,253.856 68.763,253.147 68.044 C 252.576 67.465,252.202 67.350,251.838 67.640 C 251.558 67.863,251.214 67.930,251.073 67.789 C 250.931 67.648,251.010 67.532,251.247 67.532 C 251.484 67.532,251.628 67.218,251.568 66.833 C 251.505 66.437,251.177 66.184,250.810 66.250 C 250.368 66.329,250.238 66.169,250.401 65.746 C 250.579 65.280,250.462 65.193,249.929 65.398 C 249.402 65.600,249.304 65.533,249.550 65.135 C 249.790 64.747,249.704 64.668,249.237 64.847 C 248.791 65.018,248.659 64.921,248.807 64.534 C 249.127 63.699,248.541 62.910,248.108 63.594 C 247.855 63.993,247.763 63.906,247.758 63.265 C 247.754 62.680,247.468 62.351,246.889 62.266 C 246.415 62.195,245.981 61.825,245.926 61.443 C 245.815 60.672,243.395 58.478,242.846 58.651 C 242.655 58.712,242.600 58.596,242.724 58.395 C 243.019 57.917,239.785 54.683,239.307 54.978 C 239.106 55.103,238.991 55.035,239.051 54.828 C 239.209 54.286,233.376 48.751,232.647 48.751 C 232.310 48.751,232.155 48.631,232.302 48.484 C 232.665 48.121,231.409 46.780,230.832 46.915 C 230.578 46.974,230.523 46.940,230.710 46.841 C 230.897 46.741,228.991 44.658,226.475 42.211 C 217.857 33.830,217.178 33.283,215.684 33.519 C 215.519 33.545,215.385 33.372,215.385 33.134 C 215.385 32.895,215.161 32.775,214.889 32.866 C 214.616 32.957,214.131 32.770,213.812 32.451 C 213.304 31.943,213.195 31.964,212.938 32.618 C 212.681 33.271,212.640 33.279,212.615 32.681 C 212.581 31.833,210.905 30.822,210.675 31.511 C 210.591 31.762,210.347 31.968,210.133 31.968 C 209.918 31.968,209.857 31.784,209.996 31.558 C 210.167 31.282,206.401 31.159,198.410 31.181 C 188.476 31.208,186.536 31.306,186.350 31.790 M163.970 106.866 C 164.226 106.738,164.089 106.915,163.666 107.259 C 162.753 108.000,162.514 107.879,162.901 106.871 C 163.071 106.427,163.247 106.326,163.344 106.616 C 163.433 106.881,163.714 106.994,163.970 106.866 M251.782 122.456 C 251.983 122.332,252.148 122.533,252.148 122.902 C 252.148 123.454,252.041 123.486,251.548 123.077 C 251.219 122.803,250.963 122.377,250.981 122.129 C 251.000 121.848,251.088 121.868,251.215 122.180 C 251.326 122.456,251.581 122.581,251.782 122.456 M317.920 188.270 C 318.677 189.123,318.676 189.125,317.782 188.655 C 317.288 188.396,316.883 188.010,316.883 187.798 C 316.883 187.230,317.074 187.317,317.920 188.270 " stroke="none" fill="#5cbcfc" fill-rule="evenodd"></path><path id="path1" d="M196.836 127.373 C 196.672 127.537,196.417 127.687,196.270 127.705 C 195.307 127.823,193.806 128.409,193.806 128.668 C 193.806 128.922,192.974 129.315,191.798 129.617 C 191.311 129.742,189.533 131.354,188.706 132.422 C 188.214 133.056,187.812 133.448,187.812 133.294 C 187.812 133.140,186.958 133.885,185.914 134.951 C 184.870 136.016,183.311 137.422,182.448 138.074 C 180.789 139.331,178.547 141.459,178.883 141.459 C 178.992 141.459,178.484 141.953,177.753 142.557 C 175.939 144.057,173.826 146.291,173.826 146.709 C 173.826 146.898,173.643 147.053,173.420 147.053 C 172.989 147.053,171.950 148.034,161.339 158.462 C 157.657 162.080,154.645 165.207,154.645 165.410 C 154.645 165.614,154.289 165.893,153.854 166.031 C 153.419 166.169,153.104 166.484,153.155 166.731 C 153.205 166.978,152.752 167.426,152.148 167.727 C 151.543 168.029,151.049 168.445,151.049 168.653 C 151.049 168.861,150.779 169.031,150.450 169.031 C 149.798 169.031,148.252 170.408,148.252 170.988 C 148.252 171.353,146.474 172.996,144.537 174.421 C 143.943 174.857,143.457 175.442,143.457 175.719 C 143.457 175.997,143.293 176.224,143.094 176.224 C 142.895 176.224,140.142 178.831,136.978 182.018 C 133.813 185.205,131.303 187.812,131.399 187.812 C 131.494 187.812,130.650 188.547,129.523 189.445 C 128.395 190.342,127.473 191.331,127.473 191.642 C 127.473 191.953,127.222 192.208,126.915 192.208 C 126.608 192.208,125.530 192.990,124.517 193.946 C 123.505 194.902,122.674 195.576,122.671 195.444 C 122.667 195.313,122.295 195.781,121.844 196.485 C 121.392 197.190,120.676 197.876,120.252 198.011 C 119.828 198.145,119.481 198.400,119.481 198.577 C 119.481 198.753,116.603 201.799,113.087 205.345 C 109.570 208.891,106.693 211.663,106.693 211.504 C 106.693 211.345,106.289 211.731,105.794 212.362 C 105.300 212.993,104.484 213.886,103.983 214.347 C 101.551 216.579,99.964 218.361,100.146 218.656 C 100.256 218.835,100.094 218.981,99.786 218.981 C 99.477 218.981,98.899 219.341,98.501 219.780 C 98.104 220.220,97.896 220.579,98.040 220.579 C 98.184 220.579,97.987 220.911,97.602 221.315 C 97.218 221.720,96.781 221.987,96.631 221.908 C 96.481 221.829,96.121 222.084,95.832 222.475 C 95.542 222.865,94.706 223.678,93.975 224.280 C 93.244 224.882,92.726 225.375,92.825 225.375 C 92.923 225.375,91.928 226.454,90.614 227.772 C 89.299 229.091,88.094 230.170,87.935 230.170 C 87.777 230.170,87.407 230.619,87.113 231.169 C 86.819 231.718,86.445 232.168,86.283 232.168 C 86.037 232.168,84.623 233.544,80.838 237.464 C 80.574 237.738,80.125 238.182,79.839 238.450 C 79.554 238.719,79.141 239.128,78.921 239.358 C 78.701 239.589,78.038 240.205,77.447 240.726 C 76.856 241.248,76.482 241.783,76.615 241.916 C 76.748 242.049,76.647 242.158,76.390 242.158 C 75.784 242.158,74.322 243.619,74.625 243.923 C 74.754 244.051,74.640 244.156,74.373 244.156 C 74.106 244.156,73.471 244.605,72.962 245.155 C 72.453 245.704,71.932 246.154,71.804 246.154 C 71.493 246.154,57.542 260.153,57.542 260.465 C 57.542 260.599,57.062 261.092,56.476 261.560 C 55.432 262.392,55.071 263.684,55.057 266.633 C 55.054 267.238,54.896 267.732,54.706 267.732 C 54.075 267.732,54.270 351.134,54.903 351.377 C 55.226 351.501,55.374 351.963,55.267 352.520 C 55.144 353.161,55.410 353.756,56.116 354.419 C 56.681 354.950,57.143 355.762,57.143 356.225 C 57.143 357.156,58.420 358.442,59.345 358.442 C 59.672 358.442,59.940 358.621,59.940 358.841 C 59.940 359.061,60.197 359.241,60.511 359.241 C 60.825 359.241,61.319 359.476,61.610 359.763 C 62.145 360.291,63.163 360.778,63.546 360.688 C 63.661 360.661,64.175 361.030,64.688 361.508 C 65.406 362.178,66.322 362.436,68.674 362.631 C 73.740 363.052,329.713 363.229,329.454 362.811 C 329.327 362.606,329.594 362.438,330.046 362.438 C 330.499 362.438,330.869 362.617,330.869 362.837 C 330.869 363.057,331.319 363.237,331.868 363.237 C 332.418 363.237,332.867 363.057,332.867 362.837 C 332.867 362.617,333.667 362.438,334.645 362.438 C 335.729 362.438,336.549 362.224,336.743 361.890 C 337.101 361.277,340.460 359.472,340.460 359.893 C 340.460 360.041,340.795 359.775,341.206 359.302 C 341.616 358.829,342.136 358.442,342.361 358.442 C 342.586 358.442,342.883 357.992,343.021 357.443 C 343.159 356.893,343.467 356.444,343.706 356.444 C 343.945 356.444,344.494 355.994,344.927 355.445 C 345.388 354.858,346.122 354.446,346.706 354.446 C 347.252 354.446,347.597 354.280,347.472 354.078 C 347.348 353.876,347.500 353.456,347.812 353.144 C 348.168 352.788,348.252 352.371,348.037 352.023 C 347.829 351.687,347.873 351.360,348.149 351.189 C 348.921 350.712,349.381 338.326,349.274 320.879 C 349.234 314.396,349.155 300.004,349.099 288.897 C 349.003 269.779,348.957 268.630,348.225 267.333 C 347.295 265.682,345.616 263.894,345.140 264.046 C 344.951 264.106,344.895 263.995,345.016 263.800 C 345.137 263.604,344.880 263.122,344.446 262.729 C 344.012 262.336,343.656 261.839,343.656 261.625 C 343.656 261.411,342.622 260.239,341.359 259.022 C 340.095 257.804,339.121 256.613,339.194 256.376 C 339.267 256.138,339.199 256.073,339.042 256.230 C 338.885 256.387,338.264 255.989,337.662 255.345 C 337.061 254.701,336.455 254.287,336.316 254.426 C 336.178 254.565,336.064 254.495,336.064 254.271 C 336.064 253.843,334.259 251.748,333.890 251.748 C 333.772 251.748,333.000 251.010,332.173 250.109 C 331.346 249.207,330.276 248.057,329.794 247.554 C 329.313 247.050,329.029 246.529,329.162 246.396 C 329.295 246.263,329.195 246.154,328.940 246.154 C 328.684 246.154,324.147 241.838,318.856 236.563 C 313.566 231.289,309.069 226.973,308.864 226.973 C 308.659 226.973,308.492 226.779,308.492 226.542 C 308.492 226.047,305.303 222.977,304.789 222.977 C 304.602 222.977,304.552 222.809,304.679 222.604 C 304.806 222.399,304.376 221.917,303.725 221.532 C 303.074 221.147,302.624 220.698,302.726 220.533 C 302.828 220.368,302.369 219.913,301.705 219.521 C 301.042 219.129,300.500 218.608,300.500 218.363 C 300.500 218.118,300.050 217.677,299.500 217.383 C 298.951 217.089,298.501 216.639,298.501 216.384 C 298.501 216.128,298.052 215.679,297.502 215.385 C 296.953 215.091,296.503 214.641,296.503 214.386 C 296.503 214.130,296.054 213.681,295.504 213.387 C 294.955 213.093,294.505 212.692,294.505 212.497 C 294.505 212.029,270.185 187.812,269.715 187.812 C 269.515 187.812,269.079 187.285,268.746 186.642 C 268.413 185.998,267.783 185.358,267.346 185.219 C 266.578 184.975,263.473 182.017,262.038 180.162 C 261.653 179.665,261.339 179.407,261.339 179.588 C 261.339 179.770,261.071 179.696,260.744 179.424 C 260.416 179.153,260.247 178.771,260.368 178.576 C 260.488 178.381,260.424 178.222,260.225 178.222 C 259.747 178.222,257.913 176.625,258.380 176.617 C 258.579 176.613,258.157 176.236,257.443 175.779 C 256.729 175.321,256.245 174.785,256.368 174.586 C 256.490 174.388,256.396 174.226,256.159 174.226 C 255.714 174.226,251.123 169.808,251.182 169.438 C 251.201 169.324,250.796 168.833,250.283 168.346 C 249.770 167.859,249.351 167.580,249.351 167.724 C 249.351 167.869,248.901 167.378,248.352 166.633 C 247.802 165.889,247.353 165.439,247.353 165.634 C 247.353 165.830,246.941 165.460,246.439 164.813 C 245.936 164.166,243.584 161.748,241.212 159.441 C 236.134 154.500,224.317 142.657,224.465 142.657 C 224.521 142.657,224.260 142.298,223.883 141.858 C 223.507 141.419,223.000 141.059,222.756 141.059 C 222.512 141.059,222.072 140.609,221.778 140.060 C 221.484 139.510,221.101 139.061,220.926 139.061 C 220.519 139.061,217.383 135.806,217.383 135.384 C 217.383 135.209,217.217 135.065,217.014 135.065 C 216.811 135.065,216.105 134.525,215.446 133.866 C 214.787 133.207,214.358 132.667,214.494 132.667 C 214.630 132.667,214.131 132.218,213.387 131.668 C 212.642 131.119,212.202 130.664,212.410 130.657 C 212.617 130.650,212.471 130.461,212.085 130.236 C 211.698 130.011,211.199 129.940,210.976 130.078 C 210.752 130.216,210.619 130.106,210.679 129.834 C 210.740 129.561,210.250 129.207,209.590 129.047 C 208.931 128.887,207.679 128.377,206.809 127.914 C 205.187 127.053,197.570 126.639,196.836 127.373 M219.954 193.633 C 229.529 203.208,237.363 211.210,237.363 211.415 C 237.363 211.620,237.498 211.788,237.662 211.789 C 238.098 211.789,240.160 213.621,240.160 214.007 C 240.160 214.471,251.484 225.568,251.848 225.462 C 252.013 225.414,252.148 225.552,252.148 225.770 C 252.148 226.384,253.450 227.755,253.818 227.528 C 253.998 227.417,254.146 227.606,254.146 227.948 C 254.146 228.291,254.336 228.571,254.569 228.571 C 254.802 228.571,254.881 228.751,254.745 228.971 C 254.524 229.329,254.767 229.431,255.629 229.341 C 255.785 229.325,256.010 229.589,256.129 229.929 C 256.343 230.537,266.574 241.035,272.808 247.043 C 274.570 248.740,275.933 250.208,275.838 250.303 C 275.742 250.398,276.037 250.595,276.493 250.740 C 276.949 250.884,277.323 251.154,277.323 251.340 C 277.323 251.846,290.093 264.535,290.602 264.535 C 290.844 264.535,290.944 264.634,290.824 264.753 C 290.705 264.873,294.549 268.929,299.367 273.766 C 304.186 278.604,308.260 282.956,308.420 283.438 C 308.650 284.129,308.743 313.038,308.537 319.780 L 308.492 321.279 201.998 321.279 L 95.504 321.279 95.504 302.442 L 95.504 283.605 97.602 281.427 C 98.756 280.229,104.070 274.859,109.410 269.495 C 114.750 264.130,118.986 259.740,118.823 259.740 C 118.660 259.740,119.098 259.318,119.797 258.802 C 120.496 258.287,120.951 257.747,120.807 257.604 C 120.664 257.460,120.756 257.343,121.012 257.343 C 121.269 257.343,121.838 256.983,122.278 256.543 C 122.717 256.104,122.952 255.744,122.798 255.744 C 122.645 255.744,123.230 255.207,124.097 254.550 C 124.965 253.894,127.652 251.285,130.070 248.753 C 136.923 241.577,182.340 196.099,183.542 195.210 C 184.132 194.773,184.615 194.273,184.615 194.098 C 184.615 193.722,201.872 176.271,202.272 176.243 C 202.422 176.232,210.379 184.058,219.954 193.633 " stroke="none" fill="#1c8cd4" fill-rule="evenodd"></path><path id="path2" d="M176.655 38.038 C 176.610 39.001,177.125 39.182,177.809 38.443 C 178.328 37.883,178.319 37.839,177.735 38.063 C 177.372 38.203,176.987 38.102,176.881 37.840 C 176.772 37.572,176.673 37.660,176.655 38.038 M236.643 52.738 C 236.594 53.374,236.692 53.978,236.859 54.082 C 237.176 54.278,237.226 52.078,236.911 51.763 C 236.812 51.664,236.691 52.103,236.643 52.738 M151.341 63.405 C 150.279 63.964,150.180 64.742,151.172 64.729 C 151.494 64.725,151.474 64.613,151.111 64.382 C 150.714 64.131,150.844 63.974,151.610 63.782 C 152.181 63.638,152.647 63.345,152.647 63.129 C 152.647 62.914,152.602 62.756,152.547 62.780 C 152.493 62.803,151.950 63.084,151.341 63.405 M248.818 64.505 C 248.658 64.922,248.780 65.022,249.237 64.847 C 249.666 64.682,249.785 64.756,249.592 65.067 C 249.434 65.324,249.475 65.534,249.684 65.534 C 249.893 65.534,250.183 65.225,250.328 64.847 C 250.473 64.469,250.464 64.288,250.308 64.444 C 250.151 64.601,249.803 64.545,249.534 64.322 C 249.189 64.036,248.977 64.090,248.818 64.505 M252.809 68.831 C 252.911 68.996,253.180 69.131,253.406 69.131 C 253.633 69.131,254.117 69.454,254.481 69.849 C 254.846 70.244,254.988 70.334,254.796 70.049 C 254.348 69.382,255.000 69.369,255.758 70.030 C 256.074 70.305,255.917 70.055,255.410 69.475 C 254.602 68.549,252.281 67.975,252.809 68.831 M137.683 76.326 C 136.155 77.863,134.672 79.121,134.386 79.121 C 134.100 79.121,133.866 79.413,133.866 79.769 C 133.866 80.220,134.019 80.304,134.366 80.046 C 134.640 79.841,135.265 79.705,135.754 79.742 C 136.243 79.779,136.547 79.655,136.430 79.465 C 136.312 79.276,136.437 79.121,136.706 79.121 C 136.976 79.121,137.081 79.005,136.939 78.864 C 136.798 78.723,136.409 78.835,136.074 79.113 C 135.739 79.391,135.465 79.456,135.465 79.259 C 135.465 78.358,136.919 77.605,137.356 78.279 C 137.681 78.781,137.732 78.659,137.586 77.722 C 137.442 76.797,137.497 76.660,137.825 77.123 C 138.189 77.637,138.250 77.620,138.256 76.999 C 138.259 76.602,138.439 76.386,138.657 76.521 C 138.891 76.666,138.945 76.486,138.789 76.079 C 138.591 75.564,138.667 75.475,139.093 75.723 C 139.405 75.904,139.527 75.905,139.364 75.725 C 138.981 75.302,139.776 74.340,140.389 74.484 C 140.648 74.545,140.723 74.518,140.557 74.426 C 140.391 74.333,140.356 74.093,140.481 73.892 C 140.967 73.105,140.352 73.640,137.683 76.326 M198.202 74.525 C 198.475 74.855,198.551 75.125,198.371 75.125 C 198.190 75.125,198.242 75.325,198.487 75.570 C 198.731 75.814,199.120 75.898,199.350 75.756 C 199.801 75.477,198.711 73.926,198.064 73.926 C 197.866 73.926,197.928 74.196,198.202 74.525 M200.444 74.953 C 200.228 75.517,200.534 75.927,201.166 75.918 C 201.404 75.915,201.329 75.738,200.999 75.524 C 200.582 75.255,200.551 75.120,200.899 75.081 C 201.174 75.050,201.623 74.996,201.898 74.962 C 202.173 74.927,202.507 75.054,202.642 75.245 C 202.776 75.436,202.984 75.337,203.103 75.025 C 203.264 74.606,202.972 74.459,201.977 74.459 C 201.238 74.459,200.549 74.681,200.444 74.953 M192.301 79.046 C 192.476 79.676,191.231 81.026,190.672 80.811 C 190.317 80.675,190.183 80.753,190.340 81.006 C 190.662 81.528,189.660 82.423,189.210 82.015 C 189.030 81.852,189.019 81.954,189.186 82.243 C 189.362 82.548,189.186 83.133,188.765 83.642 C 188.367 84.122,189.338 83.262,190.924 81.729 C 194.295 78.470,193.981 78.905,193.015 78.832 C 192.581 78.799,192.259 78.896,192.301 79.046 M209.480 81.189 C 209.137 81.533,209.128 81.802,209.449 82.188 C 210.064 82.929,210.595 82.847,210.558 82.018 C 210.539 81.596,210.446 81.518,210.324 81.821 C 210.213 82.097,209.948 82.216,209.737 82.085 C 209.500 81.938,209.532 81.630,209.820 81.283 C 210.386 80.601,210.137 80.532,209.480 81.189 M210.789 83.916 C 211.187 84.356,211.581 84.715,211.664 84.715 C 211.748 84.715,211.624 84.356,211.389 83.916 C 211.153 83.477,210.760 83.117,210.513 83.117 C 210.267 83.117,210.391 83.477,210.789 83.916 M185.784 86.296 C 184.614 87.366,183.908 87.754,183.599 87.498 C 182.945 86.955,182.578 87.491,183.028 88.332 C 183.295 88.831,183.261 89.100,182.914 89.224 C 182.641 89.321,182.518 89.511,182.640 89.645 C 182.762 89.779,184.015 88.724,185.425 87.302 C 188.264 84.438,188.480 83.832,185.784 86.296 M127.647 86.407 C 127.002 87.118,126.847 87.388,127.304 87.007 C 127.761 86.626,128.316 86.314,128.536 86.314 C 128.757 86.314,128.938 86.044,128.938 85.714 C 128.938 84.945,129.011 84.905,127.647 86.407 M123.876 89.687 C 123.876 90.003,124.045 90.367,124.252 90.495 C 124.458 90.622,124.600 90.363,124.566 89.919 C 124.497 89.006,123.876 88.797,123.876 89.687 M180.986 90.010 C 180.637 91.055,180.828 91.833,181.330 91.416 C 181.709 91.101,181.754 90.888,181.460 90.790 C 181.215 90.708,181.116 90.477,181.240 90.276 C 181.364 90.075,181.365 89.910,181.242 89.910 C 181.120 89.910,181.004 89.955,180.986 90.010 M119.769 94.310 C 118.849 95.385,118.887 96.089,119.817 95.205 C 120.221 94.820,120.489 94.384,120.411 94.236 C 120.334 94.088,120.587 93.884,120.974 93.783 C 121.494 93.647,121.518 93.587,121.068 93.553 C 120.732 93.527,120.148 93.868,119.769 94.310 M170.259 100.064 C 169.901 100.496,169.904 100.698,170.272 100.925 C 170.560 101.103,170.649 101.054,170.494 100.803 C 170.351 100.572,170.494 100.284,170.811 100.162 C 171.221 100.005,171.314 100.134,171.132 100.607 C 170.906 101.196,170.950 101.205,171.510 100.686 C 171.859 100.364,172.062 99.965,171.962 99.800 C 171.669 99.316,170.764 99.456,170.259 100.064 M169.121 101.169 C 169.181 101.460,169.006 101.653,168.731 101.598 C 168.457 101.543,168.232 101.768,168.232 102.098 C 168.232 102.428,168.531 102.697,168.898 102.697 C 169.264 102.697,169.445 102.579,169.301 102.434 C 169.156 102.290,169.225 101.946,169.453 101.671 C 169.742 101.323,169.738 101.089,169.440 100.905 C 169.204 100.759,169.061 100.878,169.121 101.169 M112.984 101.932 C 112.597 102.157,112.105 102.232,111.890 102.099 C 111.667 101.961,111.600 102.124,111.736 102.477 C 112.041 103.272,112.147 103.259,113.179 102.298 C 114.121 101.420,114.060 101.305,112.984 101.932 M291.947 105.788 C 291.495 106.241,291.710 106.522,292.507 106.522 C 292.947 106.522,293.307 106.400,293.307 106.251 C 293.307 105.867,292.234 105.502,291.947 105.788 M162.901 106.871 C 162.514 107.879,162.753 108.000,163.666 107.259 C 164.089 106.915,164.226 106.738,163.970 106.866 C 163.714 106.994,163.433 106.881,163.344 106.616 C 163.247 106.326,163.071 106.427,162.901 106.871 M99.754 113.827 C 99.000 114.660,98.922 115.085,99.524 115.085 C 99.757 115.085,99.849 114.925,99.728 114.731 C 99.608 114.536,99.760 114.169,100.065 113.915 C 100.490 113.562,100.670 113.575,100.829 113.969 C 100.971 114.324,101.046 114.336,101.067 114.010 C 101.123 113.177,100.429 113.081,99.754 113.827 M97.764 115.816 C 96.986 116.675,96.923 117.083,97.569 117.083 C 97.826 117.083,97.915 116.963,97.768 116.816 C 97.621 116.669,97.799 116.219,98.163 115.817 C 98.527 115.414,98.735 115.085,98.625 115.085 C 98.515 115.085,98.128 115.414,97.764 115.816 M95.766 117.814 C 94.988 118.673,94.925 119.081,95.571 119.081 C 95.828 119.081,95.917 118.961,95.770 118.814 C 95.623 118.667,95.801 118.217,96.165 117.815 C 96.529 117.412,96.737 117.083,96.627 117.083 C 96.517 117.083,96.130 117.412,95.766 117.814 M303.498 117.880 C 303.379 118.072,303.828 118.213,304.494 118.194 C 305.832 118.156,305.859 117.945,304.558 117.694 C 304.093 117.605,303.616 117.688,303.498 117.880 M247.531 119.047 C 247.656 119.248,247.531 119.492,247.255 119.588 C 246.979 119.685,247.293 119.764,247.952 119.764 C 248.611 119.764,248.925 119.685,248.649 119.588 C 248.373 119.492,248.249 119.248,248.373 119.047 C 248.497 118.846,248.308 118.681,247.952 118.681 C 247.596 118.681,247.407 118.846,247.531 119.047 M148.201 122.849 C 147.449 123.630,147.148 123.728,146.660 123.348 C 146.133 122.938,146.124 122.967,146.595 123.568 C 147.229 124.376,148.364 123.961,149.056 122.668 C 149.621 121.611,149.333 121.672,148.201 122.849 M252.947 125.674 C 255.026 127.762,256.804 129.471,256.897 129.471 C 256.991 129.471,256.741 129.111,256.344 128.671 C 255.946 128.232,255.796 127.872,256.010 127.872 C 256.514 127.872,258.204 129.815,258.307 130.511 C 258.350 130.805,258.539 131.186,258.727 131.357 C 258.915 131.528,258.932 131.432,258.765 131.142 C 258.404 130.517,259.743 130.630,260.270 131.269 C 260.470 131.511,260.540 131.446,260.448 131.104 C 260.365 130.793,259.984 130.494,259.602 130.437 C 258.848 130.327,257.074 128.298,257.253 127.750 C 257.313 127.565,257.178 127.527,256.953 127.666 C 256.728 127.805,256.543 127.617,256.543 127.247 C 256.543 126.746,256.413 126.683,256.031 127.001 C 255.675 127.296,255.338 127.300,254.932 127.012 C 254.468 126.684,254.512 126.648,255.145 126.836 C 255.888 127.058,255.895 127.037,255.245 126.530 C 254.860 126.231,254.545 125.680,254.545 125.307 C 254.545 124.934,254.373 124.734,254.163 124.864 C 253.953 124.994,253.880 125.409,254.001 125.787 C 254.182 126.351,254.148 126.370,253.810 125.893 C 253.584 125.574,253.489 125.168,253.598 124.991 C 253.707 124.814,253.501 124.556,253.139 124.417 C 252.624 124.220,252.594 124.094,253.002 123.842 C 253.289 123.665,253.373 123.375,253.188 123.199 C 253.004 123.022,252.670 123.161,252.445 123.509 C 252.089 124.060,251.889 123.996,250.880 123.009 C 250.243 122.387,249.598 121.878,249.445 121.878 C 249.292 121.878,250.868 123.586,252.947 125.674 M250.981 122.129 C 250.963 122.377,251.219 122.803,251.548 123.077 C 252.041 123.486,252.148 123.454,252.148 122.902 C 252.148 122.533,251.983 122.332,251.782 122.456 C 251.581 122.581,251.326 122.456,251.215 122.180 C 251.088 121.868,251.000 121.848,250.981 122.129 M261.538 133.467 C 261.220 133.982,261.648 134.674,262.261 134.634 C 262.605 134.611,262.598 134.546,262.238 134.401 C 261.963 134.290,261.738 134.024,261.738 133.809 C 261.738 133.595,261.946 133.548,262.200 133.704 C 262.485 133.881,262.552 133.814,262.376 133.528 C 262.026 132.963,261.857 132.950,261.538 133.467 M74.626 139.270 C 74.440 140.242,74.477 140.279,75.056 139.701 C 75.509 139.248,75.567 138.944,75.260 138.636 C 74.952 138.329,74.771 138.510,74.626 139.270 M70.729 142.870 C 70.729 143.516,71.354 143.663,71.702 143.099 C 71.824 142.902,71.655 142.638,71.326 142.512 C 70.964 142.373,70.729 142.513,70.729 142.870 M69.524 144.356 C 69.519 145.073,69.442 145.135,69.142 144.660 C 68.843 144.187,68.780 144.239,68.831 144.916 C 68.919 146.091,69.930 145.628,69.930 144.413 C 69.930 143.887,69.840 143.457,69.730 143.457 C 69.620 143.457,69.528 143.861,69.524 144.356 M272.414 144.247 C 272.154 145.242,272.678 145.637,273.286 144.904 C 273.625 144.496,273.599 144.248,273.181 143.901 C 272.742 143.536,272.581 143.609,272.414 144.247 M273.987 145.822 C 273.078 146.154,274.008 147.125,275.446 147.344 C 275.910 147.415,276.429 147.693,276.600 147.962 C 276.839 148.339,276.912 148.331,276.917 147.928 C 276.920 147.635,277.126 147.531,277.384 147.691 C 277.670 147.867,277.737 147.800,277.561 147.514 C 277.404 147.261,276.826 147.053,276.277 147.053 C 275.727 147.053,275.376 146.894,275.496 146.699 C 275.845 146.135,274.797 145.527,273.987 145.822 M277.058 148.875 C 276.930 149.211,276.936 149.597,277.074 149.734 C 277.211 149.871,277.325 149.639,277.329 149.217 C 277.333 148.635,277.417 148.582,277.678 148.994 C 277.890 149.327,278.117 149.382,278.269 149.135 C 278.406 148.915,278.241 148.629,277.905 148.500 C 277.553 148.365,277.193 148.525,277.058 148.875 M165.035 154.046 C 163.398 155.694,162.177 157.043,162.323 157.043 C 162.469 157.043,163.976 155.694,165.674 154.046 C 167.371 152.398,168.591 151.049,168.386 151.049 C 168.180 151.049,166.672 152.398,165.035 154.046 M282.713 155.440 C 283.561 156.309,284.457 156.887,284.770 156.767 C 285.127 156.630,285.247 156.755,285.108 157.118 C 284.791 157.944,286.691 159.604,287.461 159.174 C 287.890 158.933,287.963 158.651,287.700 158.236 C 287.392 157.748,287.318 157.785,287.287 158.442 C 287.267 158.881,287.159 159.015,287.047 158.739 C 286.936 158.463,286.689 158.333,286.499 158.450 C 286.309 158.568,285.959 158.299,285.720 157.853 C 285.389 157.235,285.408 157.040,285.800 157.031 C 286.397 157.017,285.444 156.381,284.513 156.173 C 283.781 156.009,283.099 155.391,282.860 154.673 C 282.758 154.367,282.345 154.067,281.942 154.008 C 281.411 153.930,281.623 154.324,282.713 155.440 M110.374 158.856 C 110.090 159.178,110.040 159.441,110.261 159.441 C 110.483 159.441,110.546 159.749,110.401 160.127 C 110.167 160.735,110.209 160.747,110.774 160.227 C 111.124 159.904,111.258 159.584,111.072 159.515 C 110.886 159.445,110.833 159.131,110.954 158.815 C 111.232 158.093,111.035 158.107,110.374 158.856 M347.864 159.421 C 347.735 159.630,348.144 160.378,348.773 161.082 C 349.708 162.129,349.962 162.245,350.163 161.721 C 350.336 161.270,350.236 161.146,349.825 161.304 C 349.400 161.467,349.307 161.326,349.484 160.784 C 349.668 160.218,349.631 160.172,349.331 160.593 C 349.009 161.046,348.859 161.001,348.509 160.346 C 348.273 159.906,348.194 159.432,348.332 159.293 C 348.471 159.155,348.475 159.041,348.342 159.041 C 348.208 159.041,347.993 159.212,347.864 159.421 M106.957 163.366 C 105.989 164.435,106.145 164.805,107.164 163.856 C 107.642 163.410,107.941 162.952,107.827 162.839 C 107.714 162.725,107.322 162.962,106.957 163.366 M48.790 163.989 C 48.201 164.698,49.153 165.153,49.986 164.561 C 50.422 164.251,50.381 164.215,49.806 164.402 C 49.254 164.582,49.122 164.488,49.294 164.040 C 49.582 163.288,49.389 163.268,48.790 163.989 M105.359 164.811 C 105.230 165.147,104.867 165.322,104.551 165.201 C 103.833 164.925,103.315 165.675,103.951 166.068 C 104.258 166.257,104.312 166.183,104.108 165.853 C 103.878 165.482,104.021 165.420,104.647 165.619 C 105.450 165.874,106.330 164.938,105.793 164.401 C 105.683 164.291,105.488 164.476,105.359 164.811 M358.218 170.452 C 357.463 171.057,357.464 171.063,358.280 170.670 C 358.874 170.385,359.276 170.407,359.660 170.748 C 360.114 171.151,360.116 171.116,359.672 170.529 C 359.035 169.688,359.163 169.695,358.218 170.452 M309.024 180.441 C 309.024 180.791,309.418 181.019,310.023 181.019 C 311.116 181.019,311.098 180.940,309.857 180.295 C 309.198 179.953,309.024 179.984,309.024 180.441 M87.968 181.853 C 87.449 182.273,87.237 182.617,87.497 182.617 C 88.009 182.617,89.300 181.474,89.059 181.234 C 88.977 181.154,88.487 181.432,87.968 181.853 M86.192 183.277 C 86.323 183.618,86.179 184.056,85.872 184.250 C 85.495 184.489,85.472 184.605,85.800 184.609 C 86.591 184.619,87.211 183.140,86.527 182.877 C 86.134 182.727,86.029 182.853,86.192 183.277 M372.561 184.796 C 372.561 185.117,372.712 185.286,372.897 185.172 C 373.082 185.057,373.400 185.380,373.604 185.888 C 373.839 186.473,373.985 186.579,374.001 186.176 C 374.015 185.825,373.696 185.240,373.293 184.875 C 372.687 184.327,372.561 184.313,372.561 184.796 M313.495 185.309 C 313.930 185.697,314.489 186.244,314.738 186.525 C 315.101 186.936,315.238 186.912,315.433 186.405 C 315.573 186.040,315.508 185.876,315.280 186.017 C 315.063 186.151,314.884 186.115,314.882 185.938 C 314.880 185.760,314.390 185.387,313.792 185.110 C 312.735 184.618,312.727 184.624,313.495 185.309 M316.987 188.126 C 317.016 188.521,317.355 188.840,317.745 188.840 C 318.397 188.840,318.401 188.786,317.805 188.126 C 317.449 187.734,317.108 187.413,317.046 187.413 C 316.984 187.413,316.957 187.734,316.987 188.126 M382.222 194.212 C 382.455 194.590,382.369 194.672,381.923 194.501 C 381.524 194.348,381.327 194.464,381.380 194.821 C 381.516 195.750,381.822 195.810,382.325 195.005 C 382.677 194.441,382.683 194.170,382.348 193.963 C 382.049 193.778,382.006 193.863,382.222 194.212 M71.031 197.268 C 71.308 197.380,71.432 197.635,71.308 197.836 C 70.945 198.423,71.385 198.257,71.928 197.602 C 72.347 197.098,72.276 197.008,71.478 197.035 C 70.956 197.052,70.755 197.157,71.031 197.268 M63.384 205.448 C 63.045 205.933,62.739 206.077,62.610 205.812 C 62.490 205.564,62.443 205.595,62.503 205.884 C 62.560 206.164,62.322 206.616,61.973 206.888 C 61.427 207.313,61.478 207.363,62.338 207.248 C 62.887 207.174,63.359 206.906,63.387 206.653 C 63.414 206.401,63.459 206.003,63.487 205.771 C 63.514 205.538,63.716 205.459,63.936 205.594 C 64.156 205.730,64.336 205.640,64.336 205.395 C 64.336 205.149,64.503 205.051,64.708 205.178 C 64.912 205.304,65.170 205.262,65.279 205.084 C 65.729 204.358,63.903 204.708,63.384 205.448 M110.479 207.487 C 108.946 209.078,108.390 209.752,109.242 208.986 C 111.111 207.305,113.487 204.925,113.487 204.734 C 113.487 204.410,113.126 204.740,110.479 207.487 M336.464 207.393 C 336.464 207.638,336.284 207.728,336.064 207.592 C 335.413 207.190,335.608 207.649,336.340 208.243 C 336.712 208.544,336.891 208.582,336.738 208.326 C 336.584 208.070,336.676 207.788,336.941 207.700 C 337.316 207.575,337.316 207.473,336.943 207.242 C 336.679 207.079,336.464 207.147,336.464 207.393 M381.443 213.026 C 381.546 213.194,381.449 213.444,381.225 213.582 C 380.692 213.912,380.703 214.585,381.242 214.585 C 381.475 214.585,381.554 214.406,381.419 214.186 C 381.283 213.966,381.343 213.786,381.552 213.786 C 381.761 213.786,382.024 213.546,382.137 213.253 C 382.249 212.960,382.097 212.721,381.798 212.721 C 381.499 212.721,381.339 212.858,381.443 213.026 M348.682 219.331 C 348.458 219.694,350.819 220.743,351.138 220.423 C 351.272 220.289,351.082 220.180,350.716 220.180 C 350.350 220.180,350.095 219.979,350.150 219.733 C 350.260 219.241,348.958 218.885,348.682 219.331 M20.618 220.474 C 20.166 220.926,20.381 221.207,21.179 221.207 C 21.618 221.207,21.978 221.085,21.978 220.936 C 21.978 220.552,20.905 220.187,20.618 220.474 M349.343 333.666 C 349.343 334.436,349.426 334.750,349.526 334.366 C 349.627 333.981,349.627 333.352,349.526 332.967 C 349.426 332.582,349.343 332.897,349.343 333.666 M66.533 362.723 C 66.973 362.828,67.503 363.077,67.712 363.276 C 68.325 363.858,69.128 363.694,68.876 363.037 C 68.724 362.643,68.148 362.453,67.190 362.484 C 66.344 362.511,66.069 362.611,66.533 362.723 M73.887 363.360 C 74.066 363.537,75.181 363.624,76.367 363.554 L 78.521 363.425 76.042 363.231 C 74.679 363.124,73.709 363.182,73.887 363.360 M88.924 363.216 C 88.840 363.352,90.061 363.496,91.638 363.535 C 93.215 363.574,94.326 363.536,94.106 363.451 C 93.355 363.162,89.077 362.968,88.924 363.216 M95.858 363.352 C 96.032 363.525,97.957 363.614,100.135 363.549 L 104.096 363.432 99.818 363.234 C 97.466 363.126,95.684 363.179,95.858 363.352 M105.860 363.363 C 106.041 363.543,106.886 363.630,107.740 363.555 L 109.291 363.420 107.411 363.227 C 106.377 363.121,105.679 363.182,105.860 363.363 M131.868 363.255 C 129.383 363.415,130.240 363.480,135.065 363.498 C 141.653 363.523,142.761 363.389,137.862 363.159 C 136.434 363.092,133.736 363.135,131.868 363.255 M157.043 363.237 L 154.845 363.506 156.919 363.571 C 158.060 363.607,159.105 363.457,159.241 363.237 C 159.377 363.017,159.432 362.866,159.364 362.902 C 159.296 362.938,158.252 363.089,157.043 363.237 M174.580 363.353 C 174.754 363.526,176.589 363.615,178.657 363.550 L 182.418 363.431 178.340 363.234 C 176.097 363.126,174.405 363.179,174.580 363.353 M226.973 363.237 L 225.574 363.531 226.850 363.584 C 227.551 363.613,228.236 363.457,228.372 363.237 C 228.507 363.017,228.563 362.861,228.495 362.890 C 228.427 362.919,227.742 363.075,226.973 363.237 M240.959 363.237 L 237.562 363.487 240.836 363.562 C 242.672 363.604,244.217 363.461,244.356 363.237 C 244.491 363.017,244.547 362.871,244.479 362.912 C 244.411 362.953,242.827 363.099,240.959 363.237 M252.011 363.137 C 251.909 363.302,252.393 363.467,253.086 363.504 C 254.107 363.559,254.194 363.507,253.546 363.232 C 252.505 362.791,252.234 362.774,252.011 363.137 M286.314 363.237 L 282.318 363.482 286.190 363.559 C 288.429 363.604,290.167 363.468,290.310 363.237 C 290.446 363.017,290.501 362.872,290.433 362.915 C 290.365 362.957,288.511 363.102,286.314 363.237 M292.870 363.361 C 293.049 363.539,294.074 363.626,295.149 363.554 L 297.103 363.424 294.824 363.230 C 293.571 363.124,292.691 363.183,292.870 363.361 M331.868 363.237 L 330.669 363.542 331.968 363.589 C 332.682 363.615,333.267 363.457,333.267 363.237 C 333.267 363.017,333.222 362.858,333.167 362.884 C 333.112 362.910,332.527 363.069,331.868 363.237 M83.024 363.526 C 83.742 363.615,84.821 363.613,85.422 363.522 C 86.022 363.431,85.435 363.358,84.116 363.361 C 82.797 363.363,82.306 363.437,83.024 363.526 M113.187 363.512 C 113.571 363.613,114.201 363.613,114.585 363.512 C 114.970 363.412,114.655 363.329,113.886 363.329 C 113.117 363.329,112.802 363.412,113.187 363.512 M121.978 363.523 C 122.582 363.615,123.571 363.615,124.176 363.523 C 124.780 363.431,124.286 363.357,123.077 363.357 C 121.868 363.357,121.374 363.431,121.978 363.523 M145.761 363.526 C 146.480 363.615,147.559 363.613,148.159 363.522 C 148.759 363.431,148.172 363.358,146.853 363.361 C 145.534 363.363,145.043 363.437,145.761 363.526 M161.538 363.530 C 162.582 363.613,164.291 363.613,165.335 363.530 C 166.379 363.448,165.524 363.381,163.437 363.381 C 161.349 363.381,160.495 363.448,161.538 363.530 M169.530 363.512 C 169.915 363.613,170.544 363.613,170.929 363.512 C 171.314 363.412,170.999 363.329,170.230 363.329 C 169.461 363.329,169.146 363.412,169.530 363.512 M185.714 363.519 C 186.209 363.614,187.018 363.614,187.512 363.519 C 188.007 363.424,187.602 363.346,186.613 363.346 C 185.624 363.346,185.220 363.424,185.714 363.519 M189.510 363.512 C 189.895 363.613,190.524 363.613,190.909 363.512 C 191.294 363.412,190.979 363.329,190.210 363.329 C 189.441 363.329,189.126 363.412,189.510 363.512 M193.706 363.526 C 194.421 363.614,195.589 363.614,196.304 363.526 C 197.018 363.437,196.434 363.365,195.005 363.365 C 193.576 363.365,192.992 363.437,193.706 363.526 M201.898 363.528 C 202.722 363.614,204.071 363.614,204.895 363.528 C 205.719 363.442,205.045 363.371,203.397 363.371 C 201.748 363.371,201.074 363.442,201.898 363.528 M208.083 363.525 C 208.792 363.613,210.051 363.615,210.880 363.528 C 211.709 363.442,211.129 363.370,209.590 363.368 C 208.052 363.366,207.374 363.437,208.083 363.525 M215.684 363.526 C 216.399 363.614,217.567 363.614,218.282 363.526 C 218.996 363.437,218.412 363.365,216.983 363.365 C 215.554 363.365,214.970 363.437,215.684 363.526 M233.271 363.519 C 233.768 363.615,234.488 363.611,234.870 363.511 C 235.252 363.411,234.845 363.333,233.966 363.338 C 233.087 363.342,232.774 363.424,233.271 363.519 M247.458 363.524 C 248.065 363.615,248.965 363.613,249.456 363.518 C 249.948 363.423,249.451 363.348,248.352 363.351 C 247.253 363.354,246.851 363.432,247.458 363.524 M255.844 363.523 C 256.449 363.615,257.438 363.615,258.042 363.523 C 258.646 363.431,258.152 363.357,256.943 363.357 C 255.734 363.357,255.240 363.431,255.844 363.523 M263.241 363.519 C 263.738 363.615,264.458 363.611,264.840 363.511 C 265.222 363.411,264.815 363.333,263.936 363.338 C 263.057 363.342,262.744 363.424,263.241 363.519 M270.820 363.525 C 271.530 363.613,272.788 363.615,273.617 363.528 C 274.447 363.442,273.866 363.370,272.328 363.368 C 270.789 363.366,270.111 363.437,270.820 363.525 M278.029 363.526 C 278.747 363.615,279.826 363.613,280.427 363.522 C 281.027 363.431,280.440 363.358,279.121 363.361 C 277.802 363.363,277.311 363.437,278.029 363.526 M302.797 363.519 C 303.292 363.614,304.101 363.614,304.595 363.519 C 305.090 363.424,304.685 363.346,303.696 363.346 C 302.707 363.346,302.303 363.424,302.797 363.519 M311.794 363.524 C 312.401 363.615,313.300 363.613,313.792 363.518 C 314.283 363.423,313.786 363.348,312.687 363.351 C 311.588 363.354,311.186 363.432,311.794 363.524 M318.587 363.524 C 319.194 363.615,320.093 363.613,320.585 363.518 C 321.076 363.423,320.579 363.348,319.481 363.351 C 318.382 363.354,317.979 363.432,318.587 363.524 M325.585 363.530 C 326.525 363.614,327.963 363.613,328.782 363.527 C 329.600 363.441,328.831 363.372,327.073 363.374 C 325.315 363.375,324.645 363.445,325.585 363.530 " stroke="none" fill="#5cc4fc" fill-rule="evenodd"></path><path id="path3" d="M141.365 129.681 C 140.544 130.444,140.014 131.069,140.187 131.069 C 140.361 131.069,141.113 130.440,141.858 129.670 C 143.598 127.876,143.299 127.882,141.365 129.681 M354.845 166.434 C 355.591 167.203,356.291 167.832,356.401 167.832 C 356.510 167.832,355.990 167.203,355.245 166.434 C 354.499 165.664,353.799 165.035,353.689 165.035 C 353.579 165.035,354.100 165.664,354.845 166.434 " stroke="none" fill="#2cace8" fill-rule="evenodd"></path><path id="path4" d="M211.988 31.665 C 213.202 32.382,214.156 32.443,213.210 31.743 C 212.784 31.427,212.154 31.174,211.812 31.181 C 211.342 31.190,211.385 31.309,211.988 31.665 M222.977 38.548 C 222.977 38.825,226.549 42.358,226.830 42.358 C 227.168 42.358,224.509 39.375,223.676 38.821 C 223.292 38.564,222.977 38.442,222.977 38.548 M173.546 40.849 C 172.658 41.996,172.570 42.495,173.408 41.632 C 173.902 41.123,174.224 40.624,174.123 40.523 C 174.022 40.423,173.763 40.569,173.546 40.849 M233.529 48.951 C 234.122 49.500,234.706 49.950,234.828 49.950 C 235.202 49.950,233.190 47.966,232.809 47.959 C 232.612 47.955,232.936 48.402,233.529 48.951 M162.726 51.659 C 161.358 53.039,160.240 54.296,160.240 54.453 C 160.240 54.610,161.409 53.593,162.837 52.192 C 165.088 49.985,165.770 49.151,165.323 49.151 C 165.262 49.151,164.093 50.280,162.726 51.659 M158.741 55.530 C 157.517 57.082,157.598 57.551,158.841 56.106 C 159.390 55.468,159.839 54.810,159.840 54.645 C 159.840 54.193,159.718 54.291,158.741 55.530 M239.990 55.093 C 240.413 55.505,240.830 55.779,240.916 55.702 C 241.168 55.480,240.103 54.346,239.641 54.346 C 239.410 54.346,239.567 54.682,239.990 55.093 M241.769 56.643 C 241.782 56.988,245.957 61.086,247.153 61.928 C 247.592 62.237,246.608 61.107,244.965 59.417 C 241.895 56.258,241.750 56.133,241.769 56.643 M154.745 59.526 C 153.521 61.078,153.602 61.547,154.845 60.102 C 155.394 59.464,155.843 58.806,155.844 58.641 C 155.844 58.189,155.722 58.287,154.745 59.526 M152.218 62.190 C 151.294 63.193,151.290 63.217,152.140 62.698 C 152.630 62.400,153.119 61.926,153.226 61.647 C 153.513 60.901,153.299 61.016,152.218 62.190 M251.362 65.818 C 251.384 66.347,252.912 68.012,253.243 67.868 C 253.413 67.793,253.057 67.230,252.451 66.617 C 251.845 66.004,251.355 65.644,251.362 65.818 M142.967 71.226 C 142.148 72.136,141.550 72.952,141.639 73.041 C 141.860 73.262,144.655 70.348,144.655 69.896 C 144.655 69.367,144.602 69.408,142.967 71.226 M256.274 70.644 C 256.363 71.071,259.740 74.106,259.740 73.759 C 259.740 73.373,257.371 71.129,256.963 71.129 C 256.769 71.129,256.519 70.945,256.407 70.719 C 256.295 70.494,256.235 70.460,256.274 70.644 M261.938 76.324 C 263.020 77.423,264.083 78.322,264.300 78.322 C 264.516 78.322,263.775 77.423,262.653 76.324 C 261.531 75.225,260.468 74.326,260.291 74.326 C 260.115 74.326,260.856 75.225,261.938 76.324 M201.798 75.924 C 202.128 76.137,202.667 76.311,202.997 76.311 C 203.530 76.311,203.530 76.268,202.997 75.924 C 202.667 75.711,202.128 75.537,201.798 75.537 C 201.265 75.537,201.265 75.580,201.798 75.924 M195.816 76.708 C 195.492 76.912,195.362 77.213,195.526 77.377 C 195.689 77.541,196.127 77.371,196.499 76.999 C 197.221 76.277,196.789 76.092,195.816 76.708 M194.206 77.722 C 193.923 78.063,193.782 78.431,193.892 78.541 C 194.002 78.651,194.323 78.462,194.605 78.122 C 194.888 77.782,195.029 77.413,194.919 77.303 C 194.809 77.193,194.488 77.382,194.206 77.722 M208.198 80.171 C 208.210 80.858,208.889 81.608,209.136 81.207 C 209.271 80.988,209.114 80.588,208.787 80.316 C 208.460 80.044,208.195 79.979,208.198 80.171 M132.268 81.918 C 131.761 82.358,131.526 82.717,131.745 82.717 C 131.964 82.717,132.469 82.358,132.867 81.918 C 133.265 81.479,133.500 81.119,133.390 81.119 C 133.279 81.119,132.775 81.479,132.268 81.918 M269.212 83.278 C 269.607 83.807,270.290 84.458,270.729 84.725 C 271.169 84.993,270.909 84.560,270.151 83.765 C 268.562 82.095,268.180 81.897,269.212 83.278 M213.670 86.682 C 214.616 87.573,214.985 87.712,214.985 87.177 C 214.985 86.993,214.491 86.619,213.886 86.346 L 212.787 85.851 213.670 86.682 M215.668 88.680 C 216.614 89.571,216.983 89.710,216.983 89.175 C 216.983 88.991,216.489 88.617,215.884 88.344 L 214.785 87.849 215.668 88.680 M218.581 91.494 C 218.581 91.706,218.986 92.092,219.481 92.352 C 220.375 92.821,220.376 92.819,219.618 91.966 C 218.773 91.014,218.581 90.927,218.581 91.494 M220.741 93.848 C 221.160 94.319,221.665 94.705,221.864 94.705 C 222.426 94.705,221.828 93.960,220.857 93.450 C 219.986 92.994,219.985 92.997,220.741 93.848 M279.720 93.260 C 279.720 93.654,283.251 97.035,283.452 96.834 C 283.544 96.743,283.127 96.181,282.525 95.586 C 280.693 93.776,279.720 92.969,279.720 93.260 M222.577 95.490 C 222.577 95.702,222.982 96.088,223.477 96.348 C 224.371 96.817,224.372 96.815,223.614 95.962 C 222.769 95.010,222.577 94.923,222.577 95.490 M117.243 96.603 C 116.825 96.988,116.220 97.662,115.901 98.102 C 115.581 98.541,115.986 98.281,116.801 97.524 C 117.615 96.767,118.282 96.092,118.282 96.026 C 118.282 95.762,117.971 95.935,117.243 96.603 M112.867 100.883 C 112.237 101.424,111.818 101.961,111.934 102.078 C 112.051 102.194,112.661 101.752,113.291 101.095 C 114.676 99.649,114.440 99.531,112.867 100.883 M228.983 101.697 C 229.920 102.969,230.569 103.583,230.569 103.195 C 230.569 102.998,230.080 102.401,229.483 101.868 C 228.685 101.157,228.552 101.112,228.983 101.697 M233.367 106.029 C 233.367 106.157,234.086 106.995,234.965 107.892 C 235.844 108.789,236.558 109.381,236.551 109.207 C 236.527 108.605,233.367 105.451,233.367 106.029 M163.515 108.327 C 162.373 109.446,161.439 110.474,161.439 110.611 C 161.439 110.749,162.428 109.885,163.636 108.691 C 164.845 107.498,165.834 106.470,165.834 106.407 C 165.834 106.115,165.448 106.435,163.515 108.327 M299.570 112.687 C 301.580 114.665,303.358 116.284,303.522 116.284 C 303.685 116.284,302.225 114.665,300.278 112.687 C 298.330 110.709,296.552 109.091,296.326 109.091 C 296.100 109.091,297.559 110.709,299.570 112.687 M237.762 110.438 C 240.464 113.525,246.748 119.407,247.107 119.186 C 247.349 119.036,247.279 118.866,246.933 118.766 C 246.376 118.604,244.276 116.721,242.438 114.733 C 239.595 111.659,235.697 108.079,237.762 110.438 M160.380 111.229 C 160.127 111.482,159.228 112.340,158.382 113.137 C 155.282 116.055,149.275 122.278,149.557 122.278 C 149.955 122.278,161.204 111.119,161.001 110.925 C 160.912 110.840,160.633 110.977,160.380 111.229 M92.969 120.611 C 92.605 121.013,92.308 121.490,92.308 121.671 C 92.308 121.852,92.667 121.586,93.107 121.079 C 93.546 120.572,93.906 120.095,93.906 120.019 C 93.906 119.719,93.602 119.912,92.969 120.611 M248.152 120.879 C 248.668 121.429,249.374 121.865,249.720 121.850 C 250.179 121.830,250.133 121.729,249.550 121.479 C 249.111 121.290,248.920 121.122,249.127 121.107 C 249.584 121.073,248.105 119.911,247.583 119.893 C 247.380 119.886,247.636 120.330,248.152 120.879 M315.196 127.677 C 315.763 128.777,317.229 130.057,317.552 129.734 C 317.697 129.589,317.740 129.426,317.647 129.371 C 317.554 129.316,316.872 128.731,316.130 128.072 C 315.146 127.197,314.893 127.090,315.196 127.677 M139.378 131.768 C 139.015 132.153,138.480 132.684,138.190 132.948 C 137.286 133.770,136.619 134.665,136.909 134.665 C 137.208 134.665,140.260 131.556,140.260 131.252 C 140.260 130.931,140.054 131.051,139.378 131.768 M266.533 138.890 C 266.533 139.188,267.608 140.260,267.907 140.260 C 268.034 140.260,267.914 139.900,267.640 139.461 C 267.171 138.710,266.533 138.381,266.533 138.890 M268.531 140.906 C 268.531 141.232,271.073 143.446,271.247 143.272 C 271.405 143.113,269.056 140.659,268.745 140.659 C 268.627 140.659,268.531 140.771,268.531 140.906 M174.918 144.655 C 174.542 145.095,174.372 145.455,174.540 145.455 C 174.709 145.455,175.155 145.095,175.532 144.655 C 175.908 144.216,176.078 143.856,175.909 143.856 C 175.740 143.856,175.294 144.216,174.918 144.655 M173.293 146.121 C 172.911 146.502,172.965 147.053,173.384 147.053 C 173.580 147.053,173.844 146.783,173.971 146.454 C 174.204 145.844,173.779 145.635,173.293 146.121 M170.985 148.751 C 170.516 149.646,170.518 149.646,171.370 148.889 C 172.323 148.043,172.410 147.852,171.842 147.852 C 171.630 147.852,171.244 148.257,170.985 148.751 M64.336 148.851 C 64.058 149.186,64.015 149.451,64.238 149.451 C 64.458 149.451,64.861 149.181,65.135 148.851 C 65.412 148.517,65.456 148.252,65.233 148.252 C 65.013 148.252,64.609 148.521,64.336 148.851 M120.710 150.085 C 120.034 150.654,119.483 151.329,119.487 151.584 C 119.491 151.884,119.597 151.904,119.786 151.642 C 119.948 151.419,120.678 150.744,121.409 150.143 C 122.140 149.543,122.559 149.051,122.339 149.051 C 122.119 149.051,121.386 149.516,120.710 150.085 M337.662 149.310 C 337.662 149.524,338.472 150.448,339.461 151.363 C 341.796 153.524,341.793 152.978,339.458 150.684 C 338.470 149.715,337.662 149.096,337.662 149.310 M60.882 152.348 C 59.545 153.721,57.726 155.510,56.839 156.322 C 55.952 157.135,55.163 157.944,55.085 158.121 C 55.008 158.297,54.180 159.116,53.246 159.940 C 52.311 160.764,51.711 161.439,51.913 161.439 C 52.115 161.439,54.921 158.831,58.149 155.644 C 61.376 152.458,63.858 149.850,63.664 149.850 C 63.470 149.850,62.218 150.974,60.882 152.348 M118.282 152.448 C 117.999 152.788,117.858 153.156,117.968 153.266 C 118.078 153.376,118.399 153.187,118.681 152.847 C 118.964 152.507,119.105 152.139,118.995 152.029 C 118.885 151.919,118.564 152.107,118.282 152.448 M116.113 154.454 C 115.690 154.775,115.420 155.113,115.514 155.206 C 115.608 155.299,116.109 155.032,116.628 154.611 C 117.721 153.725,117.262 153.585,116.113 154.454 M114.063 156.411 C 113.637 156.723,113.394 157.083,113.523 157.213 C 113.652 157.342,114.084 157.087,114.483 156.646 C 115.332 155.708,115.158 155.610,114.063 156.411 M156.044 163.037 C 152.753 166.334,150.282 169.031,150.554 169.031 C 150.826 169.031,151.049 168.861,151.049 168.653 C 151.049 168.445,151.543 168.029,152.148 167.727 C 152.752 167.426,153.205 166.978,153.155 166.731 C 153.104 166.484,153.419 166.169,153.854 166.031 C 154.289 165.893,154.645 165.611,154.645 165.405 C 154.645 165.198,156.454 163.232,158.664 161.036 C 160.874 158.840,162.535 157.043,162.355 157.043 C 162.175 157.043,159.335 159.740,156.044 163.037 M288.759 161.039 C 290.495 162.827,290.579 162.884,290.254 162.038 C 290.128 161.708,289.853 161.439,289.644 161.439 C 289.435 161.439,289.367 161.272,289.493 161.068 C 289.619 160.864,289.360 160.582,288.917 160.441 C 288.474 160.301,288.112 160.018,288.112 159.813 C 288.112 159.608,287.909 159.441,287.661 159.441 C 287.412 159.441,287.907 160.160,288.759 161.039 M350.450 161.808 C 350.450 162.255,352.528 164.288,352.754 164.062 C 352.834 163.983,352.348 163.353,351.674 162.664 C 351.001 161.975,350.450 161.590,350.450 161.808 M50.347 162.640 C 49.838 163.081,49.510 163.530,49.618 163.637 C 49.726 163.745,50.235 163.384,50.751 162.836 C 51.876 161.638,51.636 161.522,50.347 162.640 M290.909 162.975 C 290.909 163.161,291.276 163.645,291.725 164.052 C 292.441 164.699,292.510 164.707,292.282 164.113 C 292.139 163.741,291.851 163.437,291.642 163.437 C 291.433 163.437,291.373 163.257,291.508 163.037 C 291.644 162.817,291.565 162.637,291.332 162.637 C 291.100 162.637,290.909 162.789,290.909 162.975 M292.921 164.843 C 292.904 165.337,304.408 176.844,304.664 176.588 C 304.904 176.348,297.334 168.631,296.858 168.631 C 296.654 168.631,296.282 168.182,296.031 167.632 C 295.781 167.083,295.387 166.633,295.156 166.633 C 294.924 166.633,294.330 166.139,293.836 165.534 C 293.341 164.930,292.929 164.619,292.921 164.843 M46.169 166.830 C 45.519 167.362,45.082 167.893,45.200 168.010 C 45.317 168.127,45.928 167.686,46.557 167.029 C 47.934 165.592,47.780 165.513,46.169 166.830 M101.099 169.264 C 99.670 170.671,98.636 171.823,98.801 171.825 C 99.167 171.829,104.017 167.019,103.830 166.837 C 103.756 166.766,102.527 167.858,101.099 169.264 M146.828 172.328 L 145.654 173.626 146.953 172.453 C 148.164 171.359,148.435 171.029,148.127 171.029 C 148.058 171.029,147.474 171.613,146.828 172.328 M360.440 171.628 C 360.713 171.958,361.117 172.228,361.337 172.228 C 361.560 172.228,361.516 171.963,361.239 171.628 C 360.965 171.299,360.561 171.029,360.342 171.029 C 360.119 171.029,360.162 171.294,360.440 171.628 M40.941 171.943 C 39.949 173.094,39.919 173.546,40.895 172.658 C 41.479 172.125,41.958 171.630,41.958 171.559 C 41.958 171.257,41.327 171.495,40.941 171.943 M96.204 174.142 C 95.160 175.181,94.306 176.183,94.306 176.368 C 94.306 176.553,95.205 175.786,96.304 174.664 C 98.037 172.893,98.587 172.191,98.202 172.241 C 98.147 172.248,97.248 173.103,96.204 174.142 M362.038 172.929 C 362.038 173.149,362.308 173.553,362.637 173.826 C 362.972 174.104,363.237 174.147,363.237 173.924 C 363.237 173.704,362.967 173.301,362.637 173.027 C 362.303 172.749,362.038 172.706,362.038 172.929 M364.036 174.927 C 364.036 175.147,364.306 175.551,364.635 175.824 C 364.970 176.102,365.235 176.145,365.235 175.922 C 365.235 175.702,364.965 175.299,364.635 175.025 C 364.301 174.747,364.036 174.704,364.036 174.927 M36.478 176.503 C 35.991 177.009,35.739 177.423,35.916 177.423 C 36.306 177.423,37.760 175.869,37.527 175.702 C 37.436 175.637,36.964 175.998,36.478 176.503 M91.574 178.633 C 90.439 179.738,89.510 180.817,89.510 181.031 C 89.510 181.244,90.185 180.732,91.009 179.893 C 94.528 176.309,94.969 175.326,91.574 178.633 M138.064 180.217 C 137.665 180.658,137.524 181.019,137.751 181.019 C 138.254 181.019,139.251 179.877,138.982 179.608 C 138.876 179.502,138.463 179.776,138.064 180.217 M262.537 180.576 C 262.537 181.037,266.577 185.104,266.807 184.874 C 266.903 184.778,265.982 183.692,264.760 182.460 C 263.537 181.228,262.537 180.380,262.537 180.576 M132.068 186.214 C 127.993 190.304,127.402 191.131,130.070 189.011 C 130.900 188.352,131.485 187.812,131.371 187.812 C 131.257 187.812,132.446 186.556,134.013 185.022 C 135.581 183.487,136.680 182.228,136.456 182.224 C 136.232 182.221,134.257 184.016,132.068 186.214 M310.490 182.552 C 310.490 182.740,310.849 183.219,311.289 183.616 C 311.903 184.172,312.088 184.209,312.088 183.774 C 312.088 183.464,311.728 182.985,311.289 182.710 C 310.849 182.436,310.490 182.364,310.490 182.552 M29.071 183.573 C 28.341 184.127,28.156 184.615,28.675 184.615 C 28.842 184.615,29.203 184.256,29.478 183.816 C 30.059 182.885,30.014 182.858,29.071 183.573 M78.586 191.338 C 78.221 191.741,77.922 192.226,77.922 192.415 C 77.922 192.603,78.300 192.353,78.761 191.857 C 79.223 191.362,79.522 190.877,79.425 190.780 C 79.328 190.684,78.951 190.934,78.586 191.338 M126.673 191.608 C 126.266 192.099,126.293 192.208,126.824 192.208 C 127.181 192.208,127.473 191.938,127.473 191.608 C 127.473 191.279,127.405 191.009,127.322 191.009 C 127.239 191.009,126.947 191.279,126.673 191.608 M380.832 192.507 C 380.855 193.046,381.891 194.199,382.134 193.957 C 382.413 193.677,381.563 192.208,381.123 192.208 C 380.956 192.208,380.825 192.343,380.832 192.507 M76.322 193.608 C 75.807 194.157,75.479 194.605,75.593 194.605 C 75.990 194.605,77.650 193.001,77.455 192.806 C 77.347 192.699,76.838 193.059,76.322 193.608 M16.843 195.670 C 16.203 196.365,16.383 196.698,17.143 196.228 C 17.438 196.046,17.613 195.714,17.531 195.490 C 17.445 195.255,17.155 195.331,16.843 195.670 M121.140 196.550 C 120.233 197.337,120.045 197.802,120.633 197.802 C 120.828 197.802,121.282 197.353,121.642 196.803 C 122.423 195.611,122.297 195.547,121.140 196.550 M72.743 197.078 C 72.295 197.559,71.928 198.144,71.929 198.377 C 71.929 198.610,72.378 198.279,72.928 197.640 C 73.477 197.002,73.926 196.417,73.926 196.341 C 73.926 196.002,73.495 196.271,72.743 197.078 M15.181 197.207 C 14.642 197.857,15.065 197.993,15.927 197.446 C 16.256 197.238,16.313 197.007,16.072 196.858 C 15.854 196.723,15.453 196.880,15.181 197.207 M327.328 199.201 C 328.054 199.970,328.792 200.599,328.969 200.599 C 329.145 200.599,328.717 199.970,328.017 199.201 C 327.317 198.432,326.579 197.802,326.377 197.802 C 326.175 197.802,326.603 198.432,327.328 199.201 M70.572 199.233 C 70.197 200.211,70.278 200.308,70.929 199.657 C 71.608 198.978,71.695 198.601,71.172 198.601 C 70.975 198.601,70.706 198.886,70.572 199.233 M13.831 200.275 C 13.691 200.975,13.720 201.692,13.896 201.868 C 14.072 202.044,14.245 201.471,14.280 200.595 C 14.356 198.673,14.177 198.545,13.831 200.275 M13.614 204.296 C 13.638 205.384,13.698 205.465,13.986 204.795 C 14.460 203.691,14.460 202.997,13.986 202.997 C 13.766 202.997,13.599 203.581,13.614 204.296 M13.593 206.693 C 13.589 207.298,13.766 207.792,13.986 207.792 C 14.491 207.792,14.491 206.976,13.986 206.194 C 13.684 205.727,13.597 205.837,13.593 206.693 M57.921 211.832 C 55.405 214.273,53.561 216.206,53.823 216.127 C 54.532 215.914,63.171 207.393,62.678 207.393 C 62.577 207.393,60.436 209.390,57.921 211.832 M14.867 212.569 C 15.418 213.452,15.806 213.342,15.447 212.405 C 15.316 212.066,15.023 211.788,14.794 211.788 C 14.531 211.788,14.558 212.075,14.867 212.569 M104.795 212.811 C 104.520 213.109,104.296 213.580,104.296 213.858 C 104.296 214.136,104.584 213.952,104.936 213.450 C 105.657 212.421,105.560 211.981,104.795 212.811 M343.019 214.747 C 343.658 215.317,344.345 215.784,344.546 215.784 C 345.074 215.784,344.010 214.798,342.849 214.211 C 341.946 213.754,341.961 213.802,343.019 214.747 M102.710 214.876 C 102.187 215.466,102.201 215.507,102.843 215.261 C 103.238 215.109,103.637 214.985,103.729 214.985 C 103.821 214.985,103.896 214.805,103.896 214.585 C 103.896 213.998,103.378 214.125,102.710 214.876 M16.111 216.143 C 16.336 216.986,16.842 217.877,17.236 218.122 C 18.074 218.646,17.838 217.598,16.905 216.655 C 16.618 216.364,16.384 215.880,16.384 215.579 C 16.384 215.278,16.230 214.937,16.043 214.822 C 15.856 214.706,15.886 215.301,16.111 216.143 M99.301 218.529 C 97.455 220.287,96.304 221.734,96.618 221.900 C 96.775 221.983,97.218 221.720,97.602 221.315 C 97.987 220.911,98.184 220.579,98.040 220.579 C 97.896 220.579,98.104 220.220,98.501 219.780 C 98.899 219.341,99.497 218.981,99.829 218.981 C 100.161 218.981,100.315 218.863,100.170 218.718 C 100.025 218.573,100.107 218.214,100.352 217.919 C 101.105 217.012,100.562 217.327,99.301 218.529 M350.050 220.648 C 350.050 221.045,351.654 222.705,351.849 222.510 C 351.957 222.402,351.596 221.893,351.047 221.377 C 350.499 220.862,350.050 220.534,350.050 220.648 M372.128 222.428 C 369.823 224.775,369.968 225.087,372.318 222.835 C 373.356 221.840,374.120 220.952,374.016 220.863 C 373.912 220.773,373.062 221.478,372.128 222.428 M22.559 222.903 C 23.427 223.823,24.363 224.575,24.638 224.575 C 25.240 224.575,23.551 222.826,22.052 221.897 C 21.203 221.371,21.309 221.581,22.559 222.903 M80.548 237.191 C 79.769 237.971,79.750 238.202,80.489 237.919 C 80.801 237.799,81.155 237.445,81.275 237.132 C 81.559 236.393,81.327 236.412,80.548 237.191 M78.550 239.189 C 77.771 239.969,77.752 240.200,78.491 239.917 C 78.803 239.797,79.157 239.443,79.277 239.130 C 79.561 238.391,79.329 238.410,78.550 239.189 M57.143 260.473 C 57.143 260.729,56.884 260.939,56.567 260.939 C 56.250 260.939,55.880 261.119,55.744 261.339 C 55.384 261.921,56.069 261.827,56.966 261.172 C 57.392 260.860,57.606 260.470,57.442 260.306 C 57.277 260.141,57.143 260.216,57.143 260.473 M344.363 262.567 C 344.858 263.133,345.126 263.746,344.959 263.930 C 344.792 264.114,344.869 264.141,345.130 263.992 C 345.392 263.842,345.791 264.038,346.017 264.427 C 346.244 264.816,346.435 264.945,346.441 264.714 C 346.448 264.482,345.781 263.673,344.959 262.916 C 344.137 262.158,343.869 262.001,344.363 262.567 M54.346 266.933 C 54.346 267.373,54.514 267.732,54.720 267.732 C 54.927 267.732,55.068 267.373,55.035 266.933 C 55.002 266.494,54.833 266.134,54.660 266.134 C 54.487 266.134,54.346 266.494,54.346 266.933 M349.051 272.328 C 349.051 273.536,349.186 274.525,349.351 274.525 C 349.515 274.525,349.650 273.536,349.650 272.328 C 349.650 271.119,349.515 270.130,349.351 270.130 C 349.186 270.130,349.051 271.119,349.051 272.328 M348.930 276.124 C 348.880 276.783,349.009 277.323,349.218 277.323 C 349.426 277.323,349.582 276.783,349.563 276.124 C 349.544 275.465,349.415 274.925,349.275 274.925 C 349.135 274.925,348.980 275.465,348.930 276.124 M349.118 277.989 C 348.693 278.413,348.809 281.319,349.251 281.319 C 349.471 281.319,349.650 280.509,349.650 279.520 C 349.650 277.691,349.590 277.517,349.118 277.989 M348.851 286.114 C 348.851 287.979,349.018 289.311,349.251 289.311 C 349.484 289.311,349.650 287.979,349.650 286.114 C 349.650 284.249,349.484 282.917,349.251 282.917 C 349.018 282.917,348.851 284.249,348.851 286.114 M308.633 287.512 C 308.632 289.491,308.700 290.350,308.784 289.423 C 308.867 288.495,308.868 286.877,308.786 285.826 C 308.703 284.776,308.635 285.534,308.633 287.512 M348.851 297.769 C 348.851 301.981,348.922 305.353,349.010 305.261 C 349.367 304.886,349.576 290.110,349.223 290.110 C 349.006 290.110,348.851 293.308,348.851 297.769 M349.146 305.994 C 349.062 306.159,349.120 306.833,349.275 307.493 C 349.551 308.671,349.557 308.666,349.603 307.193 C 349.648 305.770,349.481 305.333,349.146 305.994 M308.637 314.685 C 308.638 316.883,308.706 317.731,308.787 316.570 C 308.868 315.409,308.867 313.611,308.785 312.574 C 308.703 311.537,308.636 312.488,308.637 314.685 M349.352 317.483 C 349.356 318.362,349.438 318.674,349.533 318.177 C 349.629 317.680,349.625 316.961,349.525 316.579 C 349.425 316.197,349.347 316.603,349.352 317.483 M349.360 325.674 C 349.360 326.663,349.438 327.068,349.533 326.573 C 349.628 326.079,349.628 325.270,349.533 324.775 C 349.438 324.281,349.360 324.685,349.360 325.674 M349.032 337.421 C 349.043 338.827,349.186 339.896,349.351 339.795 C 349.754 339.550,349.736 334.865,349.332 334.865 C 349.157 334.865,349.022 336.015,349.032 337.421 M348.942 342.158 C 348.988 342.762,349.166 343.257,349.338 343.257 C 349.768 343.257,349.719 342.383,349.249 341.658 C 348.950 341.199,348.879 341.316,348.942 342.158 M63.994 361.696 C 65.223 362.641,65.896 362.648,64.905 361.706 C 64.482 361.303,63.892 360.974,63.594 360.973 C 63.287 360.973,63.459 361.285,63.994 361.696 M68.731 362.837 C 68.731 363.057,69.371 363.237,70.153 363.237 C 71.000 363.237,71.476 363.075,71.329 362.837 C 71.193 362.617,70.553 362.438,69.906 362.438 C 69.260 362.438,68.731 362.617,68.731 362.837 M329.471 362.837 C 329.606 363.057,329.977 363.237,330.293 363.237 C 330.610 363.237,330.869 363.057,330.869 362.837 C 330.869 362.617,330.499 362.438,330.046 362.438 C 329.594 362.438,329.335 362.617,329.471 362.837 M333.067 362.837 C 333.203 363.057,333.663 363.237,334.090 363.237 C 334.516 363.237,334.865 363.057,334.865 362.837 C 334.865 362.617,334.405 362.438,333.843 362.438 C 333.263 362.438,332.927 362.611,333.067 362.837 " stroke="none" fill="#2c8cec" fill-rule="evenodd"></path></g></svg>